<?xml version="1.0" encoding="UTF-8"?>
<!DOCTYPE svg PUBLIC "-//W3C//DTD SVG 1.1//EN" "http://www.w3.org/Graphics/SVG/1.1/DTD/svg11.dtd">
<svg xmlns="http://www.w3.org/2000/svg" version="1.1" width="888px" height="191px" style="shape-rendering:geometricPrecision; text-rendering:geometricPrecision; image-rendering:optimizeQuality; fill-rule:evenodd; clip-rule:evenodd" xmlns:xlink="http://www.w3.org/1999/xlink">
<g><path style="opacity:1" fill="#0c040b" d="M 17.5,18.5 C 29.1714,18.3335 40.8381,18.5001 52.5,19C 54.3398,21.8263 55.0065,24.9929 54.5,28.5C 57.3646,28.0548 59.8646,28.7215 62,30.5C 62.2407,38.6731 63.0741,46.6731 64.5,54.5C 67.3646,54.0548 69.8646,54.7215 72,56.5C 72.4992,61.1548 72.6658,65.8215 72.5,70.5C 73.5,70.5 74.5,70.5 75.5,70.5C 75.3336,62.4931 75.5003,54.4931 76,46.5C 78.8263,44.6602 81.9929,43.9935 85.5,44.5C 85.3336,36.4931 85.5003,28.4931 86,20.5C 86.5,20 87,19.5 87.5,19C 99.1667,18.3333 110.833,18.3333 122.5,19C 123,19.5 123.5,20 124,20.5C 124.667,31.1667 125.333,31.1667 126,20.5C 126.5,20 127,19.5 127.5,19C 135.833,18.3333 144.167,18.3333 152.5,19C 153,19.5 153.5,20 154,20.5C 154.667,31.1667 155.333,31.1667 156,20.5C 156.5,20 157,19.5 157.5,19C 179.167,18.3333 200.833,18.3333 222.5,19C 224.34,21.8263 225.006,24.9929 224.5,28.5C 227.044,28.1043 229.211,28.771 231,30.5C 231.333,35.1667 231.667,39.8333 232,44.5C 232.667,45.1667 233.333,45.8333 234,46.5C 234.333,37.8333 234.667,29.1667 235,20.5C 235.5,20 236,19.5 236.5,19C 245.167,18.3333 253.833,18.3333 262.5,19C 263.833,21 265.167,21 266.5,19C 291.5,18.3333 316.5,18.3333 341.5,19C 342,19.5 342.5,20 343,20.5C 343.667,31.1667 344.333,31.1667 345,20.5C 345.5,20 346,19.5 346.5,19C 368.167,18.3333 389.833,18.3333 411.5,19C 413.34,21.8263 414.006,24.9929 413.5,28.5C 416.044,28.1043 418.211,28.771 420,30.5C 420.333,35.1667 420.667,39.8333 421,44.5C 421.667,45.1667 422.333,45.8333 423,46.5C 423.333,49.1667 423.667,51.8333 424,54.5C 424.333,43.1667 424.667,31.8333 425,20.5C 425.5,20 426,19.5 426.5,19C 434.833,18.3333 443.167,18.3333 451.5,19C 452,19.5 452.5,20 453,20.5C 453.667,31.1667 454.333,31.1667 455,20.5C 455.5,20 456,19.5 456.5,19C 484.833,18.3333 513.167,18.3333 541.5,19C 543.34,21.8263 544.006,24.9929 543.5,28.5C 546.044,28.1043 548.211,28.771 550,30.5C 550.499,35.1548 550.666,39.8215 550.5,44.5C 551.5,44.5 552.5,44.5 553.5,44.5C 553.334,36.4931 553.5,28.4931 554,20.5C 554.5,20 555,19.5 555.5,19C 577.5,18.3333 599.5,18.3333 621.5,19C 623.34,21.8263 624.006,24.9929 623.5,28.5C 626.044,28.1043 628.211,28.771 630,30.5C 630.333,35.1667 630.667,39.8333 631,44.5C 631.667,45.1667 632.333,45.8333 633,46.5C 633.333,37.8333 633.667,29.1667 634,20.5C 634.5,20 635,19.5 635.5,19C 657.167,18.3333 678.833,18.3333 700.5,19C 702.34,21.8263 703.006,24.9929 702.5,28.5C 705.365,28.0548 707.865,28.7215 710,30.5C 710.241,38.6731 711.074,46.6731 712.5,54.5C 715.044,54.1043 717.211,54.771 719,56.5C 719.667,67.5 719.667,78.5 719,89.5C 716.519,91.3137 713.685,91.9804 710.5,91.5C 711.645,96.7041 712.311,102.037 712.5,107.5C 715.044,107.104 717.211,107.771 719,109.5C 719.667,129.167 719.667,148.833 719,168.5C 718.5,169 718,169.5 717.5,170C 707.833,170.667 698.167,170.667 688.5,170C 688,169.5 687.5,169 687,168.5C 686.667,163.5 686.333,158.5 686,153.5C 685.333,152.833 684.667,152.167 684,151.5C 683.5,140.505 683.333,129.505 683.5,118.5C 679.167,118.5 674.833,118.5 670.5,118.5C 670.667,135.17 670.5,151.837 670,168.5C 669.5,169 669,169.5 668.5,170C 658.5,170.667 648.5,170.667 638.5,170C 638,169.5 637.5,169 637,168.5C 636.667,163.5 636.333,158.5 636,153.5C 633.749,150.983 632.916,147.983 633.5,144.5C 632.5,144.5 631.5,144.5 630.5,144.5C 630.666,152.507 630.5,160.507 630,168.5C 629.5,169 629,169.5 628.5,170C 605.167,170.667 581.833,170.667 558.5,170C 558,169.5 557.5,169 557,168.5C 556.667,163.5 556.333,158.5 556,153.5C 553.749,150.983 552.916,147.983 553.5,144.5C 550.956,144.896 548.789,144.229 547,142.5C 546.667,137.5 546.333,132.5 546,127.5C 545.333,126.833 544.667,126.167 544,125.5C 544.053,105.642 543.886,85.6419 543.5,65.5C 535.833,65.5 528.167,65.5 520.5,65.5C 520.333,99.6939 520.167,134.027 520,168.5C 519.5,169 519,169.5 518.5,170C 508.833,170.667 499.167,170.667 489.5,170C 489,169.5 488.5,169 488,168.5C 487.667,163.5 487.333,158.5 487,153.5C 486.333,152.833 485.667,152.167 485,151.5C 484.942,122.695 484.775,94.0279 484.5,65.5C 476.5,65.5 468.5,65.5 460.5,65.5C 460.333,99.6939 460.167,134.027 460,168.5C 459.5,169 459,169.5 458.5,170C 448.833,170.667 439.167,170.667 429.5,170C 429,169.5 428.5,169 428,168.5C 427.667,163.5 427.333,158.5 427,153.5C 424.749,150.983 423.916,147.983 424.5,144.5C 423.167,144.5 421.833,144.5 420.5,144.5C 420.666,152.507 420.5,160.507 420,168.5C 419.5,169 419,169.5 418.5,170C 358.833,170.667 299.167,170.667 239.5,170C 239,169.5 238.5,169 238,168.5C 237.667,163.5 237.333,158.5 237,153.5C 234.749,150.983 233.916,147.983 234.5,144.5C 233.5,144.5 232.5,144.5 231.5,144.5C 231.666,152.507 231.5,160.507 231,168.5C 230.5,169 230,169.5 229.5,170C 186.214,170.079 143.214,170.079 100.5,170C 100,169.5 99.5,169 99,168.5C 98.6667,163.5 98.3333,158.5 98,153.5C 97.3333,152.833 96.6667,152.167 96,151.5C 95.5002,140.505 95.3335,129.505 95.5,118.5C 94.1667,118.5 92.8333,118.5 91.5,118.5C 91.6664,126.507 91.4997,134.507 91,142.5C 90.5,143 90,143.5 89.5,144C 79.8333,144.667 70.1667,144.667 60.5,144C 60,143.5 59.5,143 59,142.5C 58.6667,137.5 58.3333,132.5 58,127.5C 55.7492,124.983 54.9159,121.983 55.5,118.5C 54.5,118.5 53.5,118.5 52.5,118.5C 52.6666,135.17 52.4999,151.837 52,168.5C 51.5,169 51,169.5 50.5,170C 40.5,170.667 30.5,170.667 20.5,170C 20,169.5 19.5,169 19,168.5C 18.6667,163.5 18.3333,158.5 18,153.5C 17.3333,152.833 16.6667,152.167 16,151.5C 15.8333,142.833 15.6667,134.167 15.5,125.5C 15.5683,90.6387 15.735,55.6387 16,20.5C 16.7172,19.9558 17.2172,19.2891 17.5,18.5 Z M 184.5,48.5 C 191.5,48.5 198.5,48.5 205.5,48.5C 205.5,50.5 205.5,52.5 205.5,54.5C 198.5,54.5 191.5,54.5 184.5,54.5C 184.5,52.5 184.5,50.5 184.5,48.5 Z M 294.5,48.5 C 308.833,48.5 323.167,48.5 337.5,48.5C 337.5,50.5 337.5,52.5 337.5,54.5C 323.167,54.5 308.833,54.5 294.5,54.5C 294.5,52.5 294.5,50.5 294.5,48.5 Z M 373.5,48.5 C 380.5,48.5 387.5,48.5 394.5,48.5C 394.5,50.5 394.5,52.5 394.5,54.5C 387.5,54.5 380.5,54.5 373.5,54.5C 373.5,52.5 373.5,50.5 373.5,48.5 Z M 470.5,48.5 C 475.167,48.5 479.833,48.5 484.5,48.5C 484.5,50.5 484.5,52.5 484.5,54.5C 479.833,54.5 475.167,54.5 470.5,54.5C 470.5,52.5 470.5,50.5 470.5,48.5 Z M 513.5,48.5 C 521.5,48.5 529.5,48.5 537.5,48.5C 537.5,50.5 537.5,52.5 537.5,54.5C 529.5,54.5 521.5,54.5 513.5,54.5C 513.5,52.5 513.5,50.5 513.5,48.5 Z M 573.5,48.5 C 583.5,48.5 593.5,48.5 603.5,48.5C 603.5,50.5 603.5,52.5 603.5,54.5C 593.5,54.5 583.5,54.5 573.5,54.5C 573.5,52.5 573.5,50.5 573.5,48.5 Z M 662.5,48.5 C 669.5,48.5 676.5,48.5 683.5,48.5C 683.5,50.5 683.5,52.5 683.5,54.5C 676.5,54.5 669.5,54.5 662.5,54.5C 662.5,52.5 662.5,50.5 662.5,48.5 Z M 191.5,65.5 C 196.167,65.5 200.833,65.5 205.5,65.5C 206.014,84.9735 206.014,104.307 205.5,123.5C 200.833,123.5 196.167,123.5 191.5,123.5C 190.986,104.307 190.986,84.9735 191.5,65.5 Z M 301.5,65.5 C 315.833,65.5 330.167,65.5 344.5,65.5C 345.525,88.075 345.358,110.742 344,133.5C 343.667,130.833 343.333,128.167 343,125.5C 342.5,125 342,124.5 341.5,124C 328.171,123.5 314.837,123.333 301.5,123.5C 301.5,121.833 301.5,120.167 301.5,118.5C 310.839,118.666 320.173,118.5 329.5,118C 330,117.5 330.5,117 331,116.5C 330.804,105.069 330.804,93.7353 331,82.5C 329.211,80.771 327.044,80.1043 324.5,80.5C 325.006,76.9929 324.34,73.8263 322.5,71C 315.508,70.5004 308.508,70.3337 301.5,70.5C 301.5,68.8333 301.5,67.1667 301.5,65.5 Z M 381.5,65.5 C 385.833,65.5 390.167,65.5 394.5,65.5C 395.014,84.9735 395.014,104.307 394.5,123.5C 390.167,123.5 385.833,123.5 381.5,123.5C 380.986,104.307 380.986,84.9735 381.5,65.5 Z M 580.5,65.5 C 588.167,65.5 595.833,65.5 603.5,65.5C 604.014,84.9735 604.014,104.307 603.5,123.5C 595.833,123.5 588.167,123.5 580.5,123.5C 579.986,104.307 579.986,84.9735 580.5,65.5 Z M 670.5,65.5 C 674.833,65.5 679.167,65.5 683.5,65.5C 683.5,67.1667 683.5,68.8333 683.5,70.5C 679.167,70.5 674.833,70.5 670.5,70.5C 670.5,68.8333 670.5,67.1667 670.5,65.5 Z M 702.5,74.5 C 703.833,74.5 705.167,74.5 706.5,74.5C 706.5,76.5 706.5,78.5 706.5,80.5C 705.167,80.5 703.833,80.5 702.5,80.5C 702.5,78.5 702.5,76.5 702.5,74.5 Z M 84.5,100.5 C 85.8333,100.5 87.1667,100.5 88.5,100.5C 88.5,102.833 88.5,105.167 88.5,107.5C 87.1667,107.5 85.8333,107.5 84.5,107.5C 84.5,105.167 84.5,102.833 84.5,100.5 Z M 294.5,100.5 C 302.167,100.5 309.833,100.5 317.5,100.5C 317.5,102.833 317.5,105.167 317.5,107.5C 309.833,107.5 302.167,107.5 294.5,107.5C 294.5,105.167 294.5,102.833 294.5,100.5 Z M 662.5,100.5 C 669.5,100.5 676.5,100.5 683.5,100.5C 683.5,102.833 683.5,105.167 683.5,107.5C 676.5,107.5 669.5,107.5 662.5,107.5C 662.5,105.167 662.5,102.833 662.5,100.5 Z M 224.5,127.5 C 225.833,127.5 227.167,127.5 228.5,127.5C 228.5,129.5 228.5,131.5 228.5,133.5C 227.167,133.5 225.833,133.5 224.5,133.5C 224.5,131.5 224.5,129.5 224.5,127.5 Z M 413.5,127.5 C 414.833,127.5 416.167,127.5 417.5,127.5C 417.5,129.5 417.5,131.5 417.5,133.5C 416.167,133.5 414.833,133.5 413.5,133.5C 413.5,131.5 413.5,129.5 413.5,127.5 Z M 623.5,127.5 C 624.5,127.5 625.5,127.5 626.5,127.5C 626.5,129.5 626.5,131.5 626.5,133.5C 625.5,133.5 624.5,133.5 623.5,133.5C 623.5,131.5 623.5,129.5 623.5,127.5 Z M 72.5,127.5 C 74.5,127.5 76.5,127.5 78.5,127.5C 78.5,129.5 78.5,131.5 78.5,133.5C 76.5,133.5 74.5,133.5 72.5,133.5C 72.5,131.5 72.5,129.5 72.5,127.5 Z M 32.5,153.5 C 34.5,153.5 36.5,153.5 38.5,153.5C 38.5,155.5 38.5,157.5 38.5,159.5C 36.5,159.5 34.5,159.5 32.5,159.5C 32.5,157.5 32.5,155.5 32.5,153.5 Z M 111.5,153.5 C 113.833,153.5 116.167,153.5 118.5,153.5C 118.5,155.5 118.5,157.5 118.5,159.5C 116.167,159.5 113.833,159.5 111.5,159.5C 111.5,157.5 111.5,155.5 111.5,153.5 Z M 141.5,153.5 C 143.833,153.5 146.167,153.5 148.5,153.5C 148.5,155.5 148.5,157.5 148.5,159.5C 146.167,159.5 143.833,159.5 141.5,159.5C 141.5,157.5 141.5,155.5 141.5,153.5 Z M 171.5,153.5 C 187.167,153.5 202.833,153.5 218.5,153.5C 218.5,155.5 218.5,157.5 218.5,159.5C 202.833,159.5 187.167,159.5 171.5,159.5C 171.5,157.5 171.5,155.5 171.5,153.5 Z M 251.5,153.5 C 253.5,153.5 255.5,153.5 257.5,153.5C 257.5,155.5 257.5,157.5 257.5,159.5C 255.5,159.5 253.5,159.5 251.5,159.5C 251.5,157.5 251.5,155.5 251.5,153.5 Z M 281.5,153.5 C 300.167,153.5 318.833,153.5 337.5,153.5C 337.5,155.5 337.5,157.5 337.5,159.5C 318.833,159.5 300.167,159.5 281.5,159.5C 281.5,157.5 281.5,155.5 281.5,153.5 Z M 361.5,153.5 C 376.833,153.5 392.167,153.5 407.5,153.5C 407.5,155.5 407.5,157.5 407.5,159.5C 392.167,159.5 376.833,159.5 361.5,159.5C 361.5,157.5 361.5,155.5 361.5,153.5 Z M 440.5,153.5 C 442.833,153.5 445.167,153.5 447.5,153.5C 447.5,155.5 447.5,157.5 447.5,159.5C 445.167,159.5 442.833,159.5 440.5,159.5C 440.5,157.5 440.5,155.5 440.5,153.5 Z M 500.5,153.5 C 502.833,153.5 505.167,153.5 507.5,153.5C 507.5,155.5 507.5,157.5 507.5,159.5C 505.167,159.5 502.833,159.5 500.5,159.5C 500.5,157.5 500.5,155.5 500.5,153.5 Z M 570.5,153.5 C 585.833,153.5 601.167,153.5 616.5,153.5C 616.5,155.5 616.5,157.5 616.5,159.5C 601.167,159.5 585.833,159.5 570.5,159.5C 570.5,157.5 570.5,155.5 570.5,153.5 Z M 650.5,153.5 C 652.5,153.5 654.5,153.5 656.5,153.5C 656.5,155.5 656.5,157.5 656.5,159.5C 654.5,159.5 652.5,159.5 650.5,159.5C 650.5,157.5 650.5,155.5 650.5,153.5 Z M 700.5,153.5 C 702.5,153.5 704.5,153.5 706.5,153.5C 706.5,155.5 706.5,157.5 706.5,159.5C 704.5,159.5 702.5,159.5 700.5,159.5C 700.5,157.5 700.5,155.5 700.5,153.5 Z"/></g>
<g><path style="opacity:1" fill="#0a030a" d="M 765.5,18.5 C 783.836,18.3334 802.17,18.5001 820.5,19C 822.34,21.8263 823.006,24.9929 822.5,28.5C 825.044,28.1043 827.211,28.771 829,30.5C 829.333,35.1667 829.667,39.8333 830,44.5C 830.667,45.1667 831.333,45.8333 832,46.5C 832.333,49.1667 832.667,51.8333 833,54.5C 833.333,43.1667 833.667,31.8333 834,20.5C 834.5,20 835,19.5 835.5,19C 843.833,18.3333 852.167,18.3333 860.5,19C 862.34,21.8263 863.006,24.9929 862.5,28.5C 865.044,28.1043 867.211,28.771 869,30.5C 868.805,76.4023 868.805,122.402 869,168.5C 868.5,169 868,169.5 867.5,170C 862.667,170.167 857.833,170.333 853,170.5C 838.305,170.299 823.471,170.133 808.5,170C 808,169.5 807.5,169 807,168.5C 806.667,163.5 806.333,158.5 806,153.5C 805.333,152.833 804.667,152.167 804,151.5C 803.5,140.505 803.333,129.505 803.5,118.5C 798.833,118.5 794.167,118.5 789.5,118.5C 789.667,135.17 789.5,151.837 789,168.5C 788.5,169 788,169.5 787.5,170C 777.833,170.667 768.167,170.667 758.5,170C 758,169.5 757.5,169 757,168.5C 756.667,163.5 756.333,158.5 756,153.5C 755.333,152.833 754.667,152.167 754,151.5C 754.667,116.5 754.667,81.5 754,46.5C 756.826,44.6602 759.993,43.9935 763.5,44.5C 763.334,36.4931 763.5,28.4931 764,20.5C 764.717,19.9558 765.217,19.2891 765.5,18.5 Z M 782.5,48.5 C 789.5,48.5 796.5,48.5 803.5,48.5C 803.5,50.5 803.5,52.5 803.5,54.5C 796.5,54.5 789.5,54.5 782.5,54.5C 782.5,52.5 782.5,50.5 782.5,48.5 Z M 789.5,65.5 C 794.167,65.5 798.833,65.5 803.5,65.5C 803.5,67.1667 803.5,68.8333 803.5,70.5C 798.833,70.5 794.167,70.5 789.5,70.5C 789.5,68.8333 789.5,67.1667 789.5,65.5 Z M 782.5,100.5 C 789.5,100.5 796.5,100.5 803.5,100.5C 803.5,102.833 803.5,105.167 803.5,107.5C 796.5,107.5 789.5,107.5 782.5,107.5C 782.5,105.167 782.5,102.833 782.5,100.5 Z M 769.5,153.5 C 771.833,153.5 774.167,153.5 776.5,153.5C 776.5,155.5 776.5,157.5 776.5,159.5C 774.167,159.5 771.833,159.5 769.5,159.5C 769.5,157.5 769.5,155.5 769.5,153.5 Z M 819.5,153.5 C 821.833,153.5 824.167,153.5 826.5,153.5C 826.5,155.5 826.5,157.5 826.5,159.5C 824.167,159.5 821.833,159.5 819.5,159.5C 819.5,157.5 819.5,155.5 819.5,153.5 Z M 849.5,153.5 C 851.5,153.5 853.5,153.5 855.5,153.5C 855.5,155.5 855.5,157.5 855.5,159.5C 853.5,159.5 851.5,159.5 849.5,159.5C 849.5,157.5 849.5,155.5 849.5,153.5 Z"/></g>
<g><path style="opacity:1" fill="#e3eaf3" d="M 55.5,44.5 C 55.5,40.8333 55.5,37.1667 55.5,33.5C 49.8333,33.6636 49.5,33.9969 54.5,34.5C 54.5,37.8333 54.5,41.1667 54.5,44.5C 52.9065,41.9391 51.9065,38.9391 51.5,35.5C 50.5159,38.4281 50.1826,41.4281 50.5,44.5C 40.1667,44.5 29.8333,44.5 19.5,44.5C 19.5,37.1667 19.5,29.8333 19.5,22.5C 29.8333,22.5 40.1667,22.5 50.5,22.5C 50.5,25.8333 50.5,29.1667 50.5,32.5C 52.8333,32.5 55.1667,32.5 57.5,32.5C 58.0894,36.9707 57.4228,40.9707 55.5,44.5 Z"/></g>
<g><path style="opacity:1" fill="#e7ecf1" d="M 125.5,44.5 C 125.5,40.8333 125.5,37.1667 125.5,33.5C 119.833,33.6636 119.5,33.9969 124.5,34.5C 124.5,37.8333 124.5,41.1667 124.5,44.5C 122.906,41.9391 121.906,38.9391 121.5,35.5C 120.516,38.4281 120.183,41.4281 120.5,44.5C 110.167,44.5 99.8333,44.5 89.5,44.5C 89.5,37.1667 89.5,29.8333 89.5,22.5C 99.8333,22.5 110.167,22.5 120.5,22.5C 120.5,25.8333 120.5,29.1667 120.5,32.5C 122.833,32.5 125.167,32.5 127.5,32.5C 128.089,36.9707 127.423,40.9707 125.5,44.5 Z"/></g>
<g><path style="opacity:1" fill="#e4e8eb" d="M 155.5,44.5 C 155.5,40.8333 155.5,37.1667 155.5,33.5C 149.833,33.6636 149.5,33.9969 154.5,34.5C 154.5,37.8333 154.5,41.1667 154.5,44.5C 152.906,41.9391 151.906,38.9391 151.5,35.5C 150.516,38.4281 150.183,41.4281 150.5,44.5C 143.5,44.5 136.5,44.5 129.5,44.5C 129.5,37.1667 129.5,29.8333 129.5,22.5C 136.5,22.5 143.5,22.5 150.5,22.5C 150.5,25.8333 150.5,29.1667 150.5,32.5C 152.833,32.5 155.167,32.5 157.5,32.5C 158.089,36.9707 157.423,40.9707 155.5,44.5 Z"/></g>
<g><path style="opacity:1" fill="#e9eef3" d="M 225.5,44.5 C 225.5,40.8333 225.5,37.1667 225.5,33.5C 219.833,33.6636 219.5,33.9969 224.5,34.5C 224.5,37.8333 224.5,41.1667 224.5,44.5C 222.906,41.9391 221.906,38.9391 221.5,35.5C 220.516,38.4281 220.183,41.4281 220.5,44.5C 200.167,44.5 179.833,44.5 159.5,44.5C 159.5,37.1667 159.5,29.8333 159.5,22.5C 179.833,22.5 200.167,22.5 220.5,22.5C 220.5,25.8333 220.5,29.1667 220.5,32.5C 222.833,32.5 225.167,32.5 227.5,32.5C 228.089,36.9707 227.423,40.9707 225.5,44.5 Z"/></g>
<g><path style="opacity:1" fill="#eaf0f0" d="M 265.5,44.5 C 265.5,40.8333 265.5,37.1667 265.5,33.5C 263.473,33.3379 261.473,33.5045 259.5,34C 261.134,34.4935 262.801,34.6602 264.5,34.5C 264.5,37.8333 264.5,41.1667 264.5,44.5C 262.612,42.0122 261.945,39.0122 262.5,35.5C 261.5,35.5 260.5,35.5 259.5,35.5C 259.5,38.5 259.5,41.5 259.5,44.5C 252.833,44.5 246.167,44.5 239.5,44.5C 239.5,37.1667 239.5,29.8333 239.5,22.5C 246.167,22.5 252.833,22.5 259.5,22.5C 259.5,25.8333 259.5,29.1667 259.5,32.5C 261.833,32.5 264.167,32.5 266.5,32.5C 266.817,36.7016 266.483,40.7016 265.5,44.5 Z"/></g>
<g><path style="opacity:1" fill="#eaf0f6" d="M 344.5,44.5 C 344.5,40.8333 344.5,37.1667 344.5,33.5C 338.833,33.6636 338.5,33.9969 343.5,34.5C 343.5,37.8333 343.5,41.1667 343.5,44.5C 341.906,41.9391 340.906,38.9391 340.5,35.5C 339.516,38.4281 339.183,41.4281 339.5,44.5C 316.167,44.5 292.833,44.5 269.5,44.5C 269.5,37.1667 269.5,29.8333 269.5,22.5C 292.833,22.5 316.167,22.5 339.5,22.5C 339.5,25.8333 339.5,29.1667 339.5,32.5C 341.833,32.5 344.167,32.5 346.5,32.5C 347.089,36.9707 346.423,40.9707 344.5,44.5 Z"/></g>
<g><path style="opacity:1" fill="#e8edf3" d="M 414.5,44.5 C 414.5,40.8333 414.5,37.1667 414.5,33.5C 408.833,33.6636 408.5,33.9969 413.5,34.5C 413.5,37.8333 413.5,41.1667 413.5,44.5C 411.906,41.9391 410.906,38.9391 410.5,35.5C 409.516,38.4281 409.183,41.4281 409.5,44.5C 389.167,44.5 368.833,44.5 348.5,44.5C 348.5,37.1667 348.5,29.8333 348.5,22.5C 368.833,22.5 389.167,22.5 409.5,22.5C 409.5,25.8333 409.5,29.1667 409.5,32.5C 411.833,32.5 414.167,32.5 416.5,32.5C 417.089,36.9707 416.423,40.9707 414.5,44.5 Z"/></g>
<g><path style="opacity:1" fill="#e4e8eb" d="M 454.5,44.5 C 454.5,40.8333 454.5,37.1667 454.5,33.5C 448.833,33.6636 448.5,33.9969 453.5,34.5C 453.5,37.8333 453.5,41.1667 453.5,44.5C 451.906,41.9391 450.906,38.9391 450.5,35.5C 449.516,38.4281 449.183,41.4281 449.5,44.5C 442.5,44.5 435.5,44.5 428.5,44.5C 428.5,37.1667 428.5,29.8333 428.5,22.5C 435.5,22.5 442.5,22.5 449.5,22.5C 449.5,25.8333 449.5,29.1667 449.5,32.5C 451.833,32.5 454.167,32.5 456.5,32.5C 457.089,36.9707 456.423,40.9707 454.5,44.5 Z"/></g>
<g><path style="opacity:1" fill="#e9eef4" d="M 544.5,44.5 C 544.5,40.8333 544.5,37.1667 544.5,33.5C 538.833,33.6636 538.5,33.9969 543.5,34.5C 543.5,37.8333 543.5,41.1667 543.5,44.5C 541.906,41.9391 540.906,38.9391 540.5,35.5C 539.516,38.4281 539.183,41.4281 539.5,44.5C 512.5,44.5 485.5,44.5 458.5,44.5C 458.5,37.1667 458.5,29.8333 458.5,22.5C 485.5,22.5 512.5,22.5 539.5,22.5C 539.5,25.8333 539.5,29.1667 539.5,32.5C 541.833,32.5 544.167,32.5 546.5,32.5C 547.089,36.9707 546.423,40.9707 544.5,44.5 Z"/></g>
<g><path style="opacity:1" fill="#ebf1f5" d="M 624.5,44.5 C 624.5,40.8333 624.5,37.1667 624.5,33.5C 622.473,33.3379 620.473,33.5045 618.5,34C 620.134,34.4935 621.801,34.6602 623.5,34.5C 623.5,37.8333 623.5,41.1667 623.5,44.5C 621.612,42.0122 620.945,39.0122 621.5,35.5C 620.5,35.5 619.5,35.5 618.5,35.5C 618.5,38.5 618.5,41.5 618.5,44.5C 598.5,44.5 578.5,44.5 558.5,44.5C 558.5,37.1667 558.5,29.8333 558.5,22.5C 578.5,22.5 598.5,22.5 618.5,22.5C 618.5,25.8333 618.5,29.1667 618.5,32.5C 620.833,32.5 623.167,32.5 625.5,32.5C 625.817,36.7016 625.483,40.7016 624.5,44.5 Z"/></g>
<g><path style="opacity:1" fill="#e7edf5" d="M 703.5,44.5 C 703.5,40.8333 703.5,37.1667 703.5,33.5C 697.833,33.6636 697.5,33.9969 702.5,34.5C 702.5,37.8333 702.5,41.1667 702.5,44.5C 700.906,41.9391 699.906,38.9391 699.5,35.5C 698.516,38.4281 698.183,41.4281 698.5,44.5C 678.167,44.5 657.833,44.5 637.5,44.5C 637.5,37.1667 637.5,29.8333 637.5,22.5C 657.833,22.5 678.167,22.5 698.5,22.5C 698.5,25.8333 698.5,29.1667 698.5,32.5C 700.833,32.5 703.167,32.5 705.5,32.5C 706.089,36.9707 705.423,40.9707 703.5,44.5 Z"/></g>
<g><path style="opacity:1" fill="#e8edf2" d="M 823.5,44.5 C 823.5,40.8333 823.5,37.1667 823.5,33.5C 817.833,33.6636 817.5,33.9969 822.5,34.5C 822.5,37.8333 822.5,41.1667 822.5,44.5C 820.906,41.9391 819.906,38.9391 819.5,35.5C 818.516,38.4281 818.183,41.4281 818.5,44.5C 801.5,44.5 784.5,44.5 767.5,44.5C 767.5,37.1667 767.5,29.8333 767.5,22.5C 784.5,22.5 801.5,22.5 818.5,22.5C 818.5,25.8333 818.5,29.1667 818.5,32.5C 820.833,32.5 823.167,32.5 825.5,32.5C 826.089,36.9707 825.423,40.9707 823.5,44.5 Z"/></g>
<g><path style="opacity:1" fill="#e8eaea" d="M 863.5,44.5 C 863.5,40.8333 863.5,37.1667 863.5,33.5C 857.833,33.6636 857.5,33.9969 862.5,34.5C 862.5,37.8333 862.5,41.1667 862.5,44.5C 860.906,41.9391 859.906,38.9391 859.5,35.5C 858.516,38.4281 858.183,41.4281 858.5,44.5C 851.5,44.5 844.5,44.5 837.5,44.5C 837.5,37.1667 837.5,29.8333 837.5,22.5C 844.5,22.5 851.5,22.5 858.5,22.5C 858.5,25.8333 858.5,29.1667 858.5,32.5C 860.5,32.5 862.5,32.5 864.5,32.5C 864.817,36.7016 864.483,40.7016 863.5,44.5 Z"/></g>
<g><path style="opacity:1" fill="#1b167d" d="M 225.5,44.5 C 225.167,44.5 224.833,44.5 224.5,44.5C 224.5,41.1667 224.5,37.8333 224.5,34.5C 219.5,33.9969 219.833,33.6636 225.5,33.5C 225.5,37.1667 225.5,40.8333 225.5,44.5 Z"/></g>
<g><path style="opacity:1" fill="#2e769e" d="M 265.5,44.5 C 265.167,44.5 264.833,44.5 264.5,44.5C 264.5,41.1667 264.5,37.8333 264.5,34.5C 262.801,34.6602 261.134,34.4935 259.5,34C 261.473,33.5045 263.473,33.3379 265.5,33.5C 265.5,37.1667 265.5,40.8333 265.5,44.5 Z"/></g>
<g><path style="opacity:1" fill="#1b167d" d="M 544.5,44.5 C 544.167,44.5 543.833,44.5 543.5,44.5C 543.5,41.1667 543.5,37.8333 543.5,34.5C 538.5,33.9969 538.833,33.6636 544.5,33.5C 544.5,37.1667 544.5,40.8333 544.5,44.5 Z"/></g>
<g><path style="opacity:1" fill="#2e769e" d="M 624.5,44.5 C 624.167,44.5 623.833,44.5 623.5,44.5C 623.5,41.1667 623.5,37.8333 623.5,34.5C 621.801,34.6602 620.134,34.4935 618.5,34C 620.473,33.5045 622.473,33.3379 624.5,33.5C 624.5,37.1667 624.5,40.8333 624.5,44.5 Z"/></g>
<g><path style="opacity:1" fill="#1b167d" d="M 823.5,44.5 C 823.167,44.5 822.833,44.5 822.5,44.5C 822.5,41.1667 822.5,37.8333 822.5,34.5C 817.5,33.9969 817.833,33.6636 823.5,33.5C 823.5,37.1667 823.5,40.8333 823.5,44.5 Z"/></g>
<g><path style="opacity:1" fill="#1e78a3" d="M 863.5,44.5 C 863.167,44.5 862.833,44.5 862.5,44.5C 862.5,41.1667 862.5,37.8333 862.5,34.5C 857.5,33.9969 857.833,33.6636 863.5,33.5C 863.5,37.1667 863.5,40.8333 863.5,44.5 Z"/></g>
<g><path style="opacity:1" fill="#85571b" d="M 55.5,44.5 C 55.1667,44.5 54.8333,44.5 54.5,44.5C 54.5,41.1667 54.5,37.8333 54.5,34.5C 49.5,33.9969 49.8333,33.6636 55.5,33.5C 55.5,37.1667 55.5,40.8333 55.5,44.5 Z"/></g>
<g><path style="opacity:1" fill="#581866" d="M 125.5,44.5 C 125.167,44.5 124.833,44.5 124.5,44.5C 124.5,41.1667 124.5,37.8333 124.5,34.5C 119.5,33.9969 119.833,33.6636 125.5,33.5C 125.5,37.1667 125.5,40.8333 125.5,44.5 Z"/></g>
<g><path style="opacity:1" fill="#581866" d="M 155.5,44.5 C 155.167,44.5 154.833,44.5 154.5,44.5C 154.5,41.1667 154.5,37.8333 154.5,34.5C 149.5,33.9969 149.833,33.6636 155.5,33.5C 155.5,37.1667 155.5,40.8333 155.5,44.5 Z"/></g>
<g><path style="opacity:1" fill="#85571b" d="M 344.5,44.5 C 344.167,44.5 343.833,44.5 343.5,44.5C 343.5,41.1667 343.5,37.8333 343.5,34.5C 338.5,33.9969 338.833,33.6636 344.5,33.5C 344.5,37.1667 344.5,40.8333 344.5,44.5 Z"/></g>
<g><path style="opacity:1" fill="#581866" d="M 414.5,44.5 C 414.167,44.5 413.833,44.5 413.5,44.5C 413.5,41.1667 413.5,37.8333 413.5,34.5C 408.5,33.9969 408.833,33.6636 414.5,33.5C 414.5,37.1667 414.5,40.8333 414.5,44.5 Z"/></g>
<g><path style="opacity:1" fill="#581866" d="M 454.5,44.5 C 454.167,44.5 453.833,44.5 453.5,44.5C 453.5,41.1667 453.5,37.8333 453.5,34.5C 448.5,33.9969 448.833,33.6636 454.5,33.5C 454.5,37.1667 454.5,40.8333 454.5,44.5 Z"/></g>
<g><path style="opacity:1" fill="#85571b" d="M 703.5,44.5 C 703.167,44.5 702.833,44.5 702.5,44.5C 702.5,41.1667 702.5,37.8333 702.5,34.5C 697.5,33.9969 697.833,33.6636 703.5,33.5C 703.5,37.1667 703.5,40.8333 703.5,44.5 Z"/></g>
<g><path style="opacity:1" fill="#e5ecf4" d="M 65.5,70.5 C 65.5,66.8333 65.5,63.1667 65.5,59.5C 59.8333,59.6636 59.5,59.9969 64.5,60.5C 64.5,63.8333 64.5,67.1667 64.5,70.5C 62.9065,67.9391 61.9065,64.9391 61.5,61.5C 60.5159,64.4281 60.1826,67.4281 60.5,70.5C 46.8333,70.5 33.1667,70.5 19.5,70.5C 19.5,63.1667 19.5,55.8333 19.5,48.5C 33.1667,48.5 46.8333,48.5 60.5,48.5C 60.5,51.8333 60.5,55.1667 60.5,58.5C 62.8333,58.5 65.1667,58.5 67.5,58.5C 68.0894,62.9707 67.4228,66.9707 65.5,70.5 Z"/></g>
<g><path style="opacity:1" fill="#e9edf3" d="M 79.5,48.5 C 93.1667,48.5 106.833,48.5 120.5,48.5C 120.5,55.8333 120.5,63.1667 120.5,70.5C 106.833,70.5 93.1667,70.5 79.5,70.5C 79.5,63.1667 79.5,55.8333 79.5,48.5 Z"/></g>
<g><path style="opacity:1" fill="#cbd7d0" d="M 122.5,48.5 C 123.822,51.7681 124.489,55.4348 124.5,59.5C 124.167,63.1667 123.833,66.8333 123.5,70.5C 122.503,63.1968 122.169,55.8635 122.5,48.5 Z"/></g>
<g><path style="opacity:1" fill="#d8c9aa" d="M 125.5,48.5 C 126.822,51.7681 127.489,55.4348 127.5,59.5C 127.167,63.1667 126.833,66.8333 126.5,70.5C 125.503,63.1968 125.169,55.8635 125.5,48.5 Z"/></g>
<g><path style="opacity:1" fill="#e7ebef" d="M 129.5,48.5 C 136.5,48.5 143.5,48.5 150.5,48.5C 150.5,55.8333 150.5,63.1667 150.5,70.5C 143.5,70.5 136.5,70.5 129.5,70.5C 129.5,63.1667 129.5,55.8333 129.5,48.5 Z"/></g>
<g><path style="opacity:1" fill="#cbd7d0" d="M 152.5,48.5 C 153.822,51.7681 154.489,55.4348 154.5,59.5C 154.167,63.1667 153.833,66.8333 153.5,70.5C 152.503,63.1968 152.169,55.8635 152.5,48.5 Z"/></g>
<g><path style="opacity:1" fill="#d8c9aa" d="M 155.5,48.5 C 156.822,51.7681 157.489,55.4348 157.5,59.5C 157.167,63.1667 156.833,66.8333 156.5,70.5C 155.503,63.1968 155.169,55.8635 155.5,48.5 Z"/></g>
<g><path style="opacity:1" fill="#e9ebee" d="M 159.5,48.5 C 166.5,48.5 173.5,48.5 180.5,48.5C 180.5,55.8333 180.5,63.1667 180.5,70.5C 173.5,70.5 166.5,70.5 159.5,70.5C 159.5,63.1667 159.5,55.8333 159.5,48.5 Z"/></g>
<g><path style="opacity:1" fill="#e7e8e7" d="M 235.5,70.5 C 235.5,66.8333 235.5,63.1667 235.5,59.5C 229.833,59.6636 229.5,59.9969 234.5,60.5C 234.5,63.8333 234.5,67.1667 234.5,70.5C 232.906,67.9391 231.906,64.9391 231.5,61.5C 230.516,64.4281 230.183,67.4281 230.5,70.5C 223.5,70.5 216.5,70.5 209.5,70.5C 209.5,67.5 209.5,64.5 209.5,61.5C 202.167,61.5 194.833,61.5 187.5,61.5C 188.055,65.0122 187.388,68.0122 185.5,70.5C 185.5,67.1667 185.5,63.8333 185.5,60.5C 193.507,60.6664 201.507,60.4997 209.5,60C 201.173,59.5003 192.84,59.3336 184.5,59.5C 184.5,63.1667 184.5,66.8333 184.5,70.5C 182.577,66.9707 181.911,62.9707 182.5,58.5C 191.5,58.5 200.5,58.5 209.5,58.5C 209.5,55.1667 209.5,51.8333 209.5,48.5C 216.5,48.5 223.5,48.5 230.5,48.5C 230.5,51.8333 230.5,55.1667 230.5,58.5C 232.833,58.5 235.167,58.5 237.5,58.5C 238.089,62.9707 237.423,66.9707 235.5,70.5 Z"/></g>
<g><path style="opacity:1" fill="#ebf1f5" d="M 239.5,48.5 C 246.167,48.5 252.833,48.5 259.5,48.5C 259.5,55.8333 259.5,63.1667 259.5,70.5C 252.833,70.5 246.167,70.5 239.5,70.5C 239.5,63.1667 239.5,55.8333 239.5,48.5 Z"/></g>
<g><path style="opacity:1" fill="#d1b76e" d="M 264.5,48.5 C 264.5,55.8333 264.5,63.1667 264.5,70.5C 263.178,67.2319 262.511,63.5652 262.5,59.5C 262.511,55.4348 263.178,51.7681 264.5,48.5 Z"/></g>
<g><path style="opacity:1" fill="#b8d5d4" d="M 264.5,48.5 C 265.822,51.7681 266.489,55.4348 266.5,59.5C 266.489,63.5652 265.822,67.2319 264.5,70.5C 264.5,63.1667 264.5,55.8333 264.5,48.5 Z"/></g>
<g><path style="opacity:1" fill="#ebf1f5" d="M 269.5,48.5 C 276.167,48.5 282.833,48.5 289.5,48.5C 289.5,55.8333 289.5,63.1667 289.5,70.5C 282.833,70.5 276.167,70.5 269.5,70.5C 269.5,63.1667 269.5,55.8333 269.5,48.5 Z"/></g>
<g><path style="opacity:1" fill="#e4eaf2" d="M 348.5,48.5 C 355.5,48.5 362.5,48.5 369.5,48.5C 369.5,55.8333 369.5,63.1667 369.5,70.5C 362.5,70.5 355.5,70.5 348.5,70.5C 348.5,63.1667 348.5,55.8333 348.5,48.5 Z"/></g>
<g><path style="opacity:1" fill="#d9dcde" d="M 424.5,70.5 C 424.5,66.8333 424.5,63.1667 424.5,59.5C 418.833,59.6636 418.5,59.9969 423.5,60.5C 423.5,63.8333 423.5,67.1667 423.5,70.5C 421.906,67.9391 420.906,64.9391 420.5,61.5C 419.516,64.4281 419.183,67.4281 419.5,70.5C 412.5,70.5 405.5,70.5 398.5,70.5C 398.5,67.5 398.5,64.5 398.5,61.5C 391.167,61.5 383.833,61.5 376.5,61.5C 376.5,64.5 376.5,67.5 376.5,70.5C 374.833,70.5 373.167,70.5 371.5,70.5C 371.5,66.5 371.5,62.5 371.5,58.5C 380.5,58.5 389.5,58.5 398.5,58.5C 398.5,55.1667 398.5,51.8333 398.5,48.5C 405.5,48.5 412.5,48.5 419.5,48.5C 419.5,51.8333 419.5,55.1667 419.5,58.5C 421.833,58.5 424.167,58.5 426.5,58.5C 427.089,62.9707 426.423,66.9707 424.5,70.5 Z"/></g>
<g><path style="opacity:1" fill="#e7ebef" d="M 428.5,48.5 C 435.5,48.5 442.5,48.5 449.5,48.5C 449.5,55.8333 449.5,63.1667 449.5,70.5C 442.5,70.5 435.5,70.5 428.5,70.5C 428.5,63.1667 428.5,55.8333 428.5,48.5 Z"/></g>
<g><path style="opacity:1" fill="#cbd7d0" d="M 451.5,48.5 C 452.822,51.7681 453.489,55.4348 453.5,59.5C 453.167,63.1667 452.833,66.8333 452.5,70.5C 451.503,63.1968 451.169,55.8635 451.5,48.5 Z"/></g>
<g><path style="opacity:1" fill="#d8c9aa" d="M 454.5,48.5 C 455.822,51.7681 456.489,55.4348 456.5,59.5C 456.167,63.1667 455.833,66.8333 455.5,70.5C 454.503,63.1968 454.169,55.8635 454.5,48.5 Z"/></g>
<g><path style="opacity:1" fill="#e8eaed" d="M 463.5,48.5 C 463.5,52.5 463.5,56.5 463.5,60.5C 471.84,60.6664 480.173,60.4997 488.5,60C 480.507,59.5003 472.507,59.3336 464.5,59.5C 464.5,55.8333 464.5,52.1667 464.5,48.5C 466.402,51.3373 467.069,54.6707 466.5,58.5C 473.833,58.5 481.167,58.5 488.5,58.5C 488.5,55.1667 488.5,51.8333 488.5,48.5C 495.5,48.5 502.5,48.5 509.5,48.5C 509.5,55.8333 509.5,63.1667 509.5,70.5C 502.5,70.5 495.5,70.5 488.5,70.5C 488.5,67.5 488.5,64.5 488.5,61.5C 479.5,61.5 470.5,61.5 461.5,61.5C 460.903,56.706 461.57,52.3727 463.5,48.5 Z M 470.5,48.5 C 470.5,50.5 470.5,52.5 470.5,54.5C 475.167,54.5 479.833,54.5 484.5,54.5C 484.5,52.5 484.5,50.5 484.5,48.5C 479.833,48.5 475.167,48.5 470.5,48.5 Z"/></g>
<g><path style="opacity:1" fill="#ebf1f5" d="M 548.5,48.5 C 555.167,48.5 561.833,48.5 568.5,48.5C 568.5,55.8333 568.5,63.1667 568.5,70.5C 561.833,70.5 555.167,70.5 548.5,70.5C 548.5,63.1667 548.5,55.8333 548.5,48.5 Z"/></g>
<g><path style="opacity:1" fill="#e5ecef" d="M 633.5,70.5 C 633.5,66.8333 633.5,63.1667 633.5,59.5C 627.833,59.6636 627.5,59.9969 632.5,60.5C 632.5,63.8333 632.5,67.1667 632.5,70.5C 630.906,67.9391 629.906,64.9391 629.5,61.5C 628.516,64.4281 628.183,67.4281 628.5,70.5C 621.833,70.5 615.167,70.5 608.5,70.5C 608.5,67.5 608.5,64.5 608.5,61.5C 597.5,61.5 586.5,61.5 575.5,61.5C 575.81,64.7131 575.477,67.7131 574.5,70.5C 574.5,67.1667 574.5,63.8333 574.5,60.5C 585.838,60.6665 597.172,60.4999 608.5,60C 596.838,59.5001 585.171,59.3335 573.5,59.5C 573.5,63.1667 573.5,66.8333 573.5,70.5C 571.577,66.9707 570.911,62.9707 571.5,58.5C 583.833,58.5 596.167,58.5 608.5,58.5C 608.5,55.1667 608.5,51.8333 608.5,48.5C 615.167,48.5 621.833,48.5 628.5,48.5C 628.5,51.8333 628.5,55.1667 628.5,58.5C 630.833,58.5 633.167,58.5 635.5,58.5C 636.089,62.9707 635.423,66.9707 633.5,70.5 Z"/></g>
<g><path style="opacity:1" fill="#e4eaf2" d="M 637.5,48.5 C 644.5,48.5 651.5,48.5 658.5,48.5C 658.5,55.8333 658.5,63.1667 658.5,70.5C 651.5,70.5 644.5,70.5 637.5,70.5C 637.5,63.1667 637.5,55.8333 637.5,48.5 Z"/></g>
<g><path style="opacity:1" fill="#d6dadf" d="M 713.5,70.5 C 713.5,66.8333 713.5,63.1667 713.5,59.5C 707.833,59.6636 707.5,59.9969 712.5,60.5C 712.5,63.8333 712.5,67.1667 712.5,70.5C 710.906,67.9391 709.906,64.9391 709.5,61.5C 708.516,64.4281 708.183,67.4281 708.5,70.5C 701.5,70.5 694.5,70.5 687.5,70.5C 687.5,67.5 687.5,64.5 687.5,61.5C 680.167,61.5 672.833,61.5 665.5,61.5C 665.5,64.5 665.5,67.5 665.5,70.5C 663.833,70.5 662.167,70.5 660.5,70.5C 660.5,66.5 660.5,62.5 660.5,58.5C 669.5,58.5 678.5,58.5 687.5,58.5C 687.5,55.1667 687.5,51.8333 687.5,48.5C 694.5,48.5 701.5,48.5 708.5,48.5C 708.5,51.8333 708.5,55.1667 708.5,58.5C 710.833,58.5 713.167,58.5 715.5,58.5C 716.089,62.9707 715.423,66.9707 713.5,70.5 Z M 670.5,65.5 C 670.5,67.1667 670.5,68.8333 670.5,70.5C 674.833,70.5 679.167,70.5 683.5,70.5C 683.5,68.8333 683.5,67.1667 683.5,65.5C 679.167,65.5 674.833,65.5 670.5,65.5 Z"/></g>
<g><path style="opacity:1" fill="#e7ebef" d="M 757.5,48.5 C 764.5,48.5 771.5,48.5 778.5,48.5C 778.5,55.8333 778.5,63.1667 778.5,70.5C 771.5,70.5 764.5,70.5 757.5,70.5C 757.5,63.1667 757.5,55.8333 757.5,48.5 Z"/></g>
<g><path style="opacity:1" fill="#e6e8e9" d="M 833.5,70.5 C 833.5,66.8333 833.5,63.1667 833.5,59.5C 827.833,59.6636 827.5,59.9969 832.5,60.5C 832.5,63.8333 832.5,67.1667 832.5,70.5C 830.906,67.9391 829.906,64.9391 829.5,61.5C 828.516,64.4281 828.183,67.4281 828.5,70.5C 821.5,70.5 814.5,70.5 807.5,70.5C 807.5,67.5 807.5,64.5 807.5,61.5C 800.167,61.5 792.833,61.5 785.5,61.5C 786.055,65.0122 785.388,68.0122 783.5,70.5C 783.5,67.1667 783.5,63.8333 783.5,60.5C 791.507,60.6664 799.507,60.4997 807.5,60C 799.173,59.5003 790.84,59.3336 782.5,59.5C 782.5,63.1667 782.5,66.8333 782.5,70.5C 780.577,66.9707 779.911,62.9707 780.5,58.5C 789.5,58.5 798.5,58.5 807.5,58.5C 807.5,55.1667 807.5,51.8333 807.5,48.5C 814.5,48.5 821.5,48.5 828.5,48.5C 828.5,51.8333 828.5,55.1667 828.5,58.5C 830.833,58.5 833.167,58.5 835.5,58.5C 836.089,62.9707 835.423,66.9707 833.5,70.5 Z M 789.5,65.5 C 789.5,67.1667 789.5,68.8333 789.5,70.5C 794.167,70.5 798.833,70.5 803.5,70.5C 803.5,68.8333 803.5,67.1667 803.5,65.5C 798.833,65.5 794.167,65.5 789.5,65.5 Z"/></g>
<g><path style="opacity:1" fill="#e9ebee" d="M 837.5,48.5 C 844.5,48.5 851.5,48.5 858.5,48.5C 858.5,55.8333 858.5,63.1667 858.5,70.5C 851.5,70.5 844.5,70.5 837.5,70.5C 837.5,63.1667 837.5,55.8333 837.5,48.5 Z"/></g>
<g><path style="opacity:1" fill="#d1b76e" d="M 862.5,48.5 C 862.5,55.8333 862.5,63.1667 862.5,70.5C 861.178,67.2319 860.511,63.5652 860.5,59.5C 860.511,55.4348 861.178,51.7681 862.5,48.5 Z"/></g>
<g><path style="opacity:1" fill="#b8d5d4" d="M 862.5,48.5 C 863.822,51.7681 864.489,55.4348 864.5,59.5C 864.489,63.5652 863.822,67.2319 862.5,70.5C 862.5,63.1667 862.5,55.8333 862.5,48.5 Z"/></g>
<g><path style="opacity:1" fill="#d7dbdb" d="M 343.5,48.5 C 343.5,52.1667 343.5,55.8333 343.5,59.5C 327.167,59.5 310.833,59.5 294.5,59.5C 294.5,63.1667 294.5,66.8333 294.5,70.5C 292.577,66.9707 291.911,62.9707 292.5,58.5C 308.833,58.5 325.167,58.5 341.5,58.5C 340.931,54.6707 341.598,51.3373 343.5,48.5 Z"/></g>
<g><path style="opacity:1" fill="#dbe0e4" d="M 541.5,48.5 C 543.414,51.6843 544.08,55.351 543.5,59.5C 533.5,59.5 523.5,59.5 513.5,59.5C 513.823,63.226 513.489,66.8927 512.5,70.5C 511.509,66.5546 511.176,62.5546 511.5,58.5C 521.5,58.5 531.5,58.5 541.5,58.5C 541.5,55.1667 541.5,51.8333 541.5,48.5 Z"/></g>
<g><path style="opacity:1" fill="#1b167d" d="M 235.5,70.5 C 235.167,70.5 234.833,70.5 234.5,70.5C 234.5,67.1667 234.5,63.8333 234.5,60.5C 229.5,59.9969 229.833,59.6636 235.5,59.5C 235.5,63.1667 235.5,66.8333 235.5,70.5 Z"/></g>
<g><path style="opacity:1" fill="#231022" d="M 463.5,48.5 C 463.833,48.5 464.167,48.5 464.5,48.5C 464.5,52.1667 464.5,55.8333 464.5,59.5C 472.507,59.3336 480.507,59.5003 488.5,60C 480.173,60.4997 471.84,60.6664 463.5,60.5C 463.5,56.5 463.5,52.5 463.5,48.5 Z"/></g>
<g><path style="opacity:1" fill="#1b167d" d="M 833.5,70.5 C 833.167,70.5 832.833,70.5 832.5,70.5C 832.5,67.1667 832.5,63.8333 832.5,60.5C 827.5,59.9969 827.833,59.6636 833.5,59.5C 833.5,63.1667 833.5,66.8333 833.5,70.5 Z"/></g>
<g><path style="opacity:1" fill="#85571b" d="M 65.5,70.5 C 65.1667,70.5 64.8333,70.5 64.5,70.5C 64.5,67.1667 64.5,63.8333 64.5,60.5C 59.5,59.9969 59.8333,59.6636 65.5,59.5C 65.5,63.1667 65.5,66.8333 65.5,70.5 Z"/></g>
<g><path style="opacity:1" fill="#1c135b" d="M 185.5,70.5 C 185.167,70.5 184.833,70.5 184.5,70.5C 184.5,66.8333 184.5,63.1667 184.5,59.5C 192.84,59.3336 201.173,59.5003 209.5,60C 201.507,60.4997 193.507,60.6664 185.5,60.5C 185.5,63.8333 185.5,67.1667 185.5,70.5 Z"/></g>
<g><path style="opacity:1" fill="#1f526d" d="M 343.5,59.5 C 328.245,60.4991 312.245,60.8324 295.5,60.5C 295.5,63.8333 295.5,67.1667 295.5,70.5C 295.167,70.5 294.833,70.5 294.5,70.5C 294.5,66.8333 294.5,63.1667 294.5,59.5C 310.833,59.5 327.167,59.5 343.5,59.5 Z"/></g>
<g><path style="opacity:1" fill="#dcdbd6" d="M 343.5,48.5 C 344.5,48.5 345.5,48.5 346.5,48.5C 346.5,52.8333 346.5,57.1667 346.5,61.5C 329.833,61.5 313.167,61.5 296.5,61.5C 296.81,64.7131 296.477,67.7131 295.5,70.5C 295.5,67.1667 295.5,63.8333 295.5,60.5C 312.245,60.8324 328.245,60.4991 343.5,59.5C 343.5,55.8333 343.5,52.1667 343.5,48.5 Z"/></g>
<g><path style="opacity:1" fill="#581866" d="M 424.5,70.5 C 424.167,70.5 423.833,70.5 423.5,70.5C 423.5,67.1667 423.5,63.8333 423.5,60.5C 418.5,59.9969 418.833,59.6636 424.5,59.5C 424.5,63.1667 424.5,66.8333 424.5,70.5 Z"/></g>
<g><path style="opacity:1" fill="#e1dbc2" d="M 544.5,48.5 C 546.43,52.3727 547.097,56.706 546.5,61.5C 536.5,61.5 526.5,61.5 516.5,61.5C 516.817,64.5719 516.484,67.5719 515.5,70.5C 514.513,67.2317 514.18,63.8984 514.5,60.5C 524.5,60.5 534.5,60.5 544.5,60.5C 544.5,56.5 544.5,52.5 544.5,48.5 Z"/></g>
<g><path style="opacity:1" fill="#205573" d="M 574.5,70.5 C 574.167,70.5 573.833,70.5 573.5,70.5C 573.5,66.8333 573.5,63.1667 573.5,59.5C 585.171,59.3335 596.838,59.5001 608.5,60C 597.172,60.4999 585.838,60.6665 574.5,60.5C 574.5,63.8333 574.5,67.1667 574.5,70.5 Z"/></g>
<g><path style="opacity:1" fill="#8a591c" d="M 633.5,70.5 C 633.167,70.5 632.833,70.5 632.5,70.5C 632.5,67.1667 632.5,63.8333 632.5,60.5C 627.5,59.9969 627.833,59.6636 633.5,59.5C 633.5,63.1667 633.5,66.8333 633.5,70.5 Z"/></g>
<g><path style="opacity:1" fill="#581866" d="M 713.5,70.5 C 713.167,70.5 712.833,70.5 712.5,70.5C 712.5,67.1667 712.5,63.8333 712.5,60.5C 707.5,59.9969 707.833,59.6636 713.5,59.5C 713.5,63.1667 713.5,66.8333 713.5,70.5 Z"/></g>
<g><path style="opacity:1" fill="#47164b" d="M 783.5,70.5 C 783.167,70.5 782.833,70.5 782.5,70.5C 782.5,66.8333 782.5,63.1667 782.5,59.5C 790.84,59.3336 799.173,59.5003 807.5,60C 799.507,60.4997 791.507,60.6664 783.5,60.5C 783.5,63.8333 783.5,67.1667 783.5,70.5 Z"/></g>
<g><path style="opacity:1" fill="#e4eaf2" d="M 19.5,74.5 C 26.5,74.5 33.5,74.5 40.5,74.5C 40.5,81.8333 40.5,89.1667 40.5,96.5C 33.5,96.5 26.5,96.5 19.5,96.5C 19.5,89.1667 19.5,81.8333 19.5,74.5 Z"/></g>
<g><path style="opacity:1" fill="#e5e8ee" d="M 49.5,74.5 C 63.1667,74.5 76.8333,74.5 90.5,74.5C 90.5,81.8333 90.5,89.1667 90.5,96.5C 76.8333,96.5 63.1667,96.5 49.5,96.5C 48.8333,84.5 48.1667,84.5 47.5,96.5C 45.8333,96.5 44.1667,96.5 42.5,96.5C 42.5,92.5 42.5,88.5 42.5,84.5C 44.8333,84.5 47.1667,84.5 49.5,84.5C 49.5,81.1667 49.5,77.8333 49.5,74.5 Z"/></g>
<g><path style="opacity:1" fill="#e7ebed" d="M 95.5,96.5 C 95.5,93.1667 95.5,89.8333 95.5,86.5C 100.5,85.9969 100.167,85.6636 94.5,85.5C 94.5,89.1667 94.5,92.8333 94.5,96.5C 92.5772,92.9707 91.9106,88.9707 92.5,84.5C 94.8333,84.5 97.1667,84.5 99.5,84.5C 99.5,81.1667 99.5,77.8333 99.5,74.5C 106.5,74.5 113.5,74.5 120.5,74.5C 120.5,81.8333 120.5,89.1667 120.5,96.5C 113.5,96.5 106.5,96.5 99.5,96.5C 99.8174,93.4281 99.4841,90.4281 98.5,87.5C 98.0935,90.9391 97.0935,93.9391 95.5,96.5 Z"/></g>
<g><path style="opacity:1" fill="#cbd7d0" d="M 122.5,74.5 C 123.822,77.7681 124.489,81.4348 124.5,85.5C 124.167,89.1667 123.833,92.8333 123.5,96.5C 122.503,89.1968 122.169,81.8635 122.5,74.5 Z"/></g>
<g><path style="opacity:1" fill="#d8c9aa" d="M 125.5,74.5 C 126.822,77.7681 127.489,81.4348 127.5,85.5C 127.167,89.1667 126.833,92.8333 126.5,96.5C 125.503,89.1968 125.169,81.8635 125.5,74.5 Z"/></g>
<g><path style="opacity:1" fill="#e7ebef" d="M 129.5,74.5 C 136.5,74.5 143.5,74.5 150.5,74.5C 150.5,81.8333 150.5,89.1667 150.5,96.5C 143.5,96.5 136.5,96.5 129.5,96.5C 129.5,89.1667 129.5,81.8333 129.5,74.5 Z"/></g>
<g><path style="opacity:1" fill="#cbd7d0" d="M 152.5,74.5 C 153.822,77.7681 154.489,81.4348 154.5,85.5C 154.167,89.1667 153.833,92.8333 153.5,96.5C 152.503,89.1968 152.169,81.8635 152.5,74.5 Z"/></g>
<g><path style="opacity:1" fill="#d8c9aa" d="M 155.5,74.5 C 156.822,77.7681 157.489,81.4348 157.5,85.5C 157.167,89.1667 156.833,92.8333 156.5,96.5C 155.503,89.1968 155.169,81.8635 155.5,74.5 Z"/></g>
<g><path style="opacity:1" fill="#e9ebee" d="M 159.5,74.5 C 166.5,74.5 173.5,74.5 180.5,74.5C 180.5,81.8333 180.5,89.1667 180.5,96.5C 173.5,96.5 166.5,96.5 159.5,96.5C 159.5,89.1667 159.5,81.8333 159.5,74.5 Z"/></g>
<g><path style="opacity:1" fill="#d6cdbf" d="M 182.5,74.5 C 183.822,77.7681 184.489,81.4348 184.5,85.5C 184.167,89.1667 183.833,92.8333 183.5,96.5C 182.503,89.1968 182.169,81.8635 182.5,74.5 Z"/></g>
<g><path style="opacity:1" fill="#d1b76e" d="M 185.5,74.5 C 186.822,77.7681 187.489,81.4348 187.5,85.5C 187.167,89.1667 186.833,92.8333 186.5,96.5C 185.503,89.1968 185.169,81.8635 185.5,74.5 Z"/></g>
<g><path style="opacity:1" fill="#e9ebee" d="M 209.5,74.5 C 216.5,74.5 223.5,74.5 230.5,74.5C 230.5,81.8333 230.5,89.1667 230.5,96.5C 223.5,96.5 216.5,96.5 209.5,96.5C 209.5,89.1667 209.5,81.8333 209.5,74.5 Z"/></g>
<g><path style="opacity:1" fill="#d6cdbf" d="M 232.5,74.5 C 233.822,77.7681 234.489,81.4348 234.5,85.5C 234.167,89.1667 233.833,92.8333 233.5,96.5C 232.503,89.1968 232.169,81.8635 232.5,74.5 Z"/></g>
<g><path style="opacity:1" fill="#d1b76e" d="M 235.5,74.5 C 236.822,77.7681 237.489,81.4348 237.5,85.5C 237.167,89.1667 236.833,92.8333 236.5,96.5C 235.503,89.1968 235.169,81.8635 235.5,74.5 Z"/></g>
<g><path style="opacity:1" fill="#ebf1f5" d="M 239.5,74.5 C 246.167,74.5 252.833,74.5 259.5,74.5C 259.5,81.8333 259.5,89.1667 259.5,96.5C 252.833,96.5 246.167,96.5 239.5,96.5C 239.5,89.1667 239.5,81.8333 239.5,74.5 Z"/></g>
<g><path style="opacity:1" fill="#d1b76e" d="M 264.5,74.5 C 264.5,81.8333 264.5,89.1667 264.5,96.5C 263.178,93.2319 262.511,89.5652 262.5,85.5C 262.511,81.4348 263.178,77.7681 264.5,74.5 Z"/></g>
<g><path style="opacity:1" fill="#b8d5d4" d="M 264.5,74.5 C 265.822,77.7681 266.489,81.4348 266.5,85.5C 266.489,89.5652 265.822,93.2319 264.5,96.5C 264.5,89.1667 264.5,81.8333 264.5,74.5 Z"/></g>
<g><path style="opacity:1" fill="#e9f0f6" d="M 324.5,96.5 C 324.5,92.8333 324.5,89.1667 324.5,85.5C 318.833,85.6636 318.5,85.9969 323.5,86.5C 323.5,89.8333 323.5,93.1667 323.5,96.5C 321.906,93.9391 320.906,90.9391 320.5,87.5C 319.516,90.4281 319.183,93.4281 319.5,96.5C 302.833,96.5 286.167,96.5 269.5,96.5C 269.5,89.1667 269.5,81.8333 269.5,74.5C 286.167,74.5 302.833,74.5 319.5,74.5C 319.5,77.8333 319.5,81.1667 319.5,84.5C 321.833,84.5 324.167,84.5 326.5,84.5C 327.089,88.9707 326.423,92.9707 324.5,96.5 Z"/></g>
<g><path style="opacity:1" fill="#e4eaf2" d="M 348.5,74.5 C 355.5,74.5 362.5,74.5 369.5,74.5C 369.5,81.8333 369.5,89.1667 369.5,96.5C 362.5,96.5 355.5,96.5 348.5,96.5C 348.5,89.1667 348.5,81.8333 348.5,74.5 Z"/></g>
<g><path style="opacity:1" fill="#ca9e64" d="M 374.5,74.5 C 374.5,81.8333 374.5,89.1667 374.5,96.5C 373.178,93.2319 372.511,89.5652 372.5,85.5C 372.511,81.4348 373.178,77.7681 374.5,74.5 Z"/></g>
<g><path style="opacity:1" fill="#cbd7d0" d="M 374.5,74.5 C 375.822,77.7681 376.489,81.4348 376.5,85.5C 376.489,89.5652 375.822,93.2319 374.5,96.5C 374.5,89.1667 374.5,81.8333 374.5,74.5 Z"/></g>
<g><path style="opacity:1" fill="#e7ebef" d="M 398.5,74.5 C 405.5,74.5 412.5,74.5 419.5,74.5C 419.5,81.8333 419.5,89.1667 419.5,96.5C 412.5,96.5 405.5,96.5 398.5,96.5C 398.5,89.1667 398.5,81.8333 398.5,74.5 Z"/></g>
<g><path style="opacity:1" fill="#cbd7d0" d="M 421.5,74.5 C 422.822,77.7681 423.489,81.4348 423.5,85.5C 423.167,89.1667 422.833,92.8333 422.5,96.5C 421.503,89.1968 421.169,81.8635 421.5,74.5 Z"/></g>
<g><path style="opacity:1" fill="#d8c9aa" d="M 424.5,74.5 C 425.822,77.7681 426.489,81.4348 426.5,85.5C 426.167,89.1667 425.833,92.8333 425.5,96.5C 424.503,89.1968 424.169,81.8635 424.5,74.5 Z"/></g>
<g><path style="opacity:1" fill="#e7ebef" d="M 428.5,74.5 C 435.5,74.5 442.5,74.5 449.5,74.5C 449.5,81.8333 449.5,89.1667 449.5,96.5C 442.5,96.5 435.5,96.5 428.5,96.5C 428.5,89.1667 428.5,81.8333 428.5,74.5 Z"/></g>
<g><path style="opacity:1" fill="#cbd7d0" d="M 451.5,74.5 C 452.822,77.7681 453.489,81.4348 453.5,85.5C 453.167,89.1667 452.833,92.8333 452.5,96.5C 451.503,89.1968 451.169,81.8635 451.5,74.5 Z"/></g>
<g><path style="opacity:1" fill="#d8c9aa" d="M 454.5,74.5 C 455.822,77.7681 456.489,81.4348 456.5,85.5C 456.167,89.1667 455.833,92.8333 455.5,96.5C 454.503,89.1968 454.169,81.8635 454.5,74.5 Z"/></g>
<g><path style="opacity:1" fill="#e9ebee" d="M 488.5,74.5 C 495.5,74.5 502.5,74.5 509.5,74.5C 509.5,81.8333 509.5,89.1667 509.5,96.5C 502.5,96.5 495.5,96.5 488.5,96.5C 488.5,89.1667 488.5,81.8333 488.5,74.5 Z"/></g>
<g><path style="opacity:1" fill="#d6cdbf" d="M 511.5,74.5 C 512.822,77.7681 513.489,81.4348 513.5,85.5C 513.167,89.1667 512.833,92.8333 512.5,96.5C 511.503,89.1968 511.169,81.8635 511.5,74.5 Z"/></g>
<g><path style="opacity:1" fill="#d1b76e" d="M 514.5,74.5 C 515.822,77.7681 516.489,81.4348 516.5,85.5C 516.167,89.1667 515.833,92.8333 515.5,96.5C 514.503,89.1968 514.169,81.8635 514.5,74.5 Z"/></g>
<g><path style="opacity:1" fill="#ebf1f5" d="M 548.5,74.5 C 555.167,74.5 561.833,74.5 568.5,74.5C 568.5,81.8333 568.5,89.1667 568.5,96.5C 561.833,96.5 555.167,96.5 548.5,96.5C 548.5,89.1667 548.5,81.8333 548.5,74.5 Z"/></g>
<g><path style="opacity:1" fill="#d1b76e" d="M 573.5,74.5 C 573.5,81.8333 573.5,89.1667 573.5,96.5C 572.178,93.2319 571.511,89.5652 571.5,85.5C 571.511,81.4348 572.178,77.7681 573.5,74.5 Z"/></g>
<g><path style="opacity:1" fill="#b8d5d4" d="M 573.5,74.5 C 574.822,77.7681 575.489,81.4348 575.5,85.5C 575.489,89.5652 574.822,93.2319 573.5,96.5C 573.5,89.1667 573.5,81.8333 573.5,74.5 Z"/></g>
<g><path style="opacity:1" fill="#ebf1f5" d="M 608.5,74.5 C 615.167,74.5 621.833,74.5 628.5,74.5C 628.5,81.8333 628.5,89.1667 628.5,96.5C 621.833,96.5 615.167,96.5 608.5,96.5C 608.5,89.1667 608.5,81.8333 608.5,74.5 Z"/></g>
<g><path style="opacity:1" fill="#ca9e64" d="M 633.5,74.5 C 633.5,81.8333 633.5,89.1667 633.5,96.5C 632.178,93.2319 631.511,89.5652 631.5,85.5C 631.511,81.4348 632.178,77.7681 633.5,74.5 Z"/></g>
<g><path style="opacity:1" fill="#cbd7d0" d="M 633.5,74.5 C 634.822,77.7681 635.489,81.4348 635.5,85.5C 635.489,89.5652 634.822,93.2319 633.5,96.5C 633.5,89.1667 633.5,81.8333 633.5,74.5 Z"/></g>
<g><path style="opacity:1" fill="#e9eef5" d="M 637.5,74.5 C 657.833,74.5 678.167,74.5 698.5,74.5C 698.5,81.8333 698.5,89.1667 698.5,96.5C 678.167,96.5 657.833,96.5 637.5,96.5C 637.5,89.1667 637.5,81.8333 637.5,74.5 Z"/></g>
<g><path style="opacity:1" fill="#e9eef5" d="M 757.5,74.5 C 781.167,74.5 804.833,74.5 828.5,74.5C 828.5,81.8333 828.5,89.1667 828.5,96.5C 804.833,96.5 781.167,96.5 757.5,96.5C 757.5,89.1667 757.5,81.8333 757.5,74.5 Z"/></g>
<g><path style="opacity:1" fill="#d6cdbf" d="M 830.5,74.5 C 831.822,77.7681 832.489,81.4348 832.5,85.5C 832.167,89.1667 831.833,92.8333 831.5,96.5C 830.503,89.1968 830.169,81.8635 830.5,74.5 Z"/></g>
<g><path style="opacity:1" fill="#d1b76e" d="M 833.5,74.5 C 834.822,77.7681 835.489,81.4348 835.5,85.5C 835.167,89.1667 834.833,92.8333 834.5,96.5C 833.503,89.1968 833.169,81.8635 833.5,74.5 Z"/></g>
<g><path style="opacity:1" fill="#e9ebee" d="M 837.5,74.5 C 844.5,74.5 851.5,74.5 858.5,74.5C 858.5,81.8333 858.5,89.1667 858.5,96.5C 851.5,96.5 844.5,96.5 837.5,96.5C 837.5,89.1667 837.5,81.8333 837.5,74.5 Z"/></g>
<g><path style="opacity:1" fill="#d1b76e" d="M 862.5,74.5 C 862.5,81.8333 862.5,89.1667 862.5,96.5C 861.178,93.2319 860.511,89.5652 860.5,85.5C 860.511,81.4348 861.178,77.7681 862.5,74.5 Z"/></g>
<g><path style="opacity:1" fill="#b8d5d4" d="M 862.5,74.5 C 863.822,77.7681 864.489,81.4348 864.5,85.5C 864.489,89.5652 863.822,93.2319 862.5,96.5C 862.5,89.1667 862.5,81.8333 862.5,74.5 Z"/></g>
<g><path style="opacity:1" fill="#bbcfe1" d="M 703.5,85.5 C 702.518,88.9619 702.185,92.6286 702.5,96.5C 700.577,92.9707 699.911,88.9707 700.5,84.5C 703.833,84.5 707.167,84.5 710.5,84.5C 710.18,81.1016 710.513,77.7683 711.5,74.5C 712.489,78.1073 712.823,81.774 712.5,85.5C 709.5,85.5 706.5,85.5 703.5,85.5 Z"/></g>
<g><path style="opacity:1" fill="#5d1862" d="M 95.5,96.5 C 95.1667,96.5 94.8333,96.5 94.5,96.5C 94.5,92.8333 94.5,89.1667 94.5,85.5C 100.167,85.6636 100.5,85.9969 95.5,86.5C 95.5,89.8333 95.5,93.1667 95.5,96.5 Z"/></g>
<g><path style="opacity:1" fill="#8a591c" d="M 324.5,96.5 C 324.167,96.5 323.833,96.5 323.5,96.5C 323.5,93.1667 323.5,89.8333 323.5,86.5C 318.5,85.9969 318.833,85.6636 324.5,85.5C 324.5,89.1667 324.5,92.8333 324.5,96.5 Z"/></g>
<g><path style="opacity:1" fill="#d3cbbd" d="M 702.5,96.5 C 702.185,92.6286 702.518,88.9619 703.5,85.5C 706.625,86.4794 709.958,86.8128 713.5,86.5C 713.176,82.4454 713.509,78.4454 714.5,74.5C 715.492,78.7828 715.826,83.1161 715.5,87.5C 712.167,87.5 708.833,87.5 705.5,87.5C 705.5,90.5 705.5,93.5 705.5,96.5C 704.5,96.5 703.5,96.5 702.5,96.5 Z"/></g>
<g><path style="opacity:1" fill="#e4eaf2" d="M 19.5,101.5 C 26.5,101.5 33.5,101.5 40.5,101.5C 40.5,108.833 40.5,116.167 40.5,123.5C 33.5,123.5 26.5,123.5 19.5,123.5C 19.5,116.167 19.5,108.833 19.5,101.5 Z"/></g>
<g><path style="opacity:1" fill="#ca9e64" d="M 45.5,101.5 C 45.5,108.833 45.5,116.167 45.5,123.5C 44.1778,120.232 43.5112,116.565 43.5,112.5C 43.5112,108.435 44.1778,104.768 45.5,101.5 Z"/></g>
<g><path style="opacity:1" fill="#cbd7d0" d="M 45.5,101.5 C 46.8222,104.768 47.4888,108.435 47.5,112.5C 47.4888,116.565 46.8222,120.232 45.5,123.5C 45.5,116.167 45.5,108.833 45.5,101.5 Z"/></g>
<g><path style="opacity:1" fill="#dee3ea" d="M 52.5,101.5 C 54.1667,101.5 55.8333,101.5 57.5,101.5C 58.1667,114.833 58.8333,114.833 59.5,101.5C 66.5,101.5 73.5,101.5 80.5,101.5C 80.5,108.833 80.5,116.167 80.5,123.5C 73.5,123.5 66.5,123.5 59.5,123.5C 59.5,120.5 59.5,117.5 59.5,114.5C 57.1667,114.5 54.8333,114.5 52.5,114.5C 52.5,110.167 52.5,105.833 52.5,101.5 Z"/></g>
<g><path style="opacity:1" fill="#e7ebef" d="M 99.5,101.5 C 106.5,101.5 113.5,101.5 120.5,101.5C 120.5,108.833 120.5,116.167 120.5,123.5C 113.5,123.5 106.5,123.5 99.5,123.5C 99.5,116.167 99.5,108.833 99.5,101.5 Z"/></g>
<g><path style="opacity:1" fill="#cbd7d0" d="M 122.5,101.5 C 123.822,104.768 124.489,108.435 124.5,112.5C 124.167,116.167 123.833,119.833 123.5,123.5C 122.503,116.197 122.169,108.863 122.5,101.5 Z"/></g>
<g><path style="opacity:1" fill="#d8c9aa" d="M 125.5,101.5 C 126.822,104.768 127.489,108.435 127.5,112.5C 127.167,116.167 126.833,119.833 126.5,123.5C 125.503,116.197 125.169,108.863 125.5,101.5 Z"/></g>
<g><path style="opacity:1" fill="#e7ebef" d="M 129.5,101.5 C 136.5,101.5 143.5,101.5 150.5,101.5C 150.5,108.833 150.5,116.167 150.5,123.5C 143.5,123.5 136.5,123.5 129.5,123.5C 129.5,116.167 129.5,108.833 129.5,101.5 Z"/></g>
<g><path style="opacity:1" fill="#cbd7d0" d="M 152.5,101.5 C 153.822,104.768 154.489,108.435 154.5,112.5C 154.167,116.167 153.833,119.833 153.5,123.5C 152.503,116.197 152.169,108.863 152.5,101.5 Z"/></g>
<g><path style="opacity:1" fill="#d8c9aa" d="M 155.5,101.5 C 156.822,104.768 157.489,108.435 157.5,112.5C 157.167,116.167 156.833,119.833 156.5,123.5C 155.503,116.197 155.169,108.863 155.5,101.5 Z"/></g>
<g><path style="opacity:1" fill="#e9ebee" d="M 159.5,101.5 C 166.5,101.5 173.5,101.5 180.5,101.5C 180.5,108.833 180.5,116.167 180.5,123.5C 173.5,123.5 166.5,123.5 159.5,123.5C 159.5,116.167 159.5,108.833 159.5,101.5 Z"/></g>
<g><path style="opacity:1" fill="#d6cdbf" d="M 182.5,101.5 C 183.822,104.768 184.489,108.435 184.5,112.5C 184.167,116.167 183.833,119.833 183.5,123.5C 182.503,116.197 182.169,108.863 182.5,101.5 Z"/></g>
<g><path style="opacity:1" fill="#d1b76e" d="M 185.5,101.5 C 186.822,104.768 187.489,108.435 187.5,112.5C 187.167,116.167 186.833,119.833 186.5,123.5C 185.503,116.197 185.169,108.863 185.5,101.5 Z"/></g>
<g><path style="opacity:1" fill="#e9ebee" d="M 209.5,101.5 C 216.5,101.5 223.5,101.5 230.5,101.5C 230.5,108.833 230.5,116.167 230.5,123.5C 223.5,123.5 216.5,123.5 209.5,123.5C 209.5,116.167 209.5,108.833 209.5,101.5 Z"/></g>
<g><path style="opacity:1" fill="#d6cdbf" d="M 232.5,101.5 C 233.822,104.768 234.489,108.435 234.5,112.5C 234.167,116.167 233.833,119.833 233.5,123.5C 232.503,116.197 232.169,108.863 232.5,101.5 Z"/></g>
<g><path style="opacity:1" fill="#d1b76e" d="M 235.5,101.5 C 236.822,104.768 237.489,108.435 237.5,112.5C 237.167,116.167 236.833,119.833 236.5,123.5C 235.503,116.197 235.169,108.863 235.5,101.5 Z"/></g>
<g><path style="opacity:1" fill="#ebf1f5" d="M 239.5,101.5 C 246.167,101.5 252.833,101.5 259.5,101.5C 259.5,108.833 259.5,116.167 259.5,123.5C 252.833,123.5 246.167,123.5 239.5,123.5C 239.5,116.167 239.5,108.833 239.5,101.5 Z"/></g>
<g><path style="opacity:1" fill="#d1b76e" d="M 264.5,101.5 C 264.5,108.833 264.5,116.167 264.5,123.5C 263.178,120.232 262.511,116.565 262.5,112.5C 262.511,108.435 263.178,104.768 264.5,101.5 Z"/></g>
<g><path style="opacity:1" fill="#b8d5d4" d="M 264.5,101.5 C 265.822,104.768 266.489,108.435 266.5,112.5C 266.489,116.565 265.822,120.232 264.5,123.5C 264.5,116.167 264.5,108.833 264.5,101.5 Z"/></g>
<g><path style="opacity:1" fill="#ebf1f5" d="M 269.5,101.5 C 276.167,101.5 282.833,101.5 289.5,101.5C 289.5,108.833 289.5,116.167 289.5,123.5C 282.833,123.5 276.167,123.5 269.5,123.5C 269.5,116.167 269.5,108.833 269.5,101.5 Z"/></g>
<g><path style="opacity:1" fill="#e4eaf2" d="M 348.5,101.5 C 355.5,101.5 362.5,101.5 369.5,101.5C 369.5,108.833 369.5,116.167 369.5,123.5C 362.5,123.5 355.5,123.5 348.5,123.5C 348.5,116.167 348.5,108.833 348.5,101.5 Z"/></g>
<g><path style="opacity:1" fill="#ca9e64" d="M 374.5,101.5 C 374.5,108.833 374.5,116.167 374.5,123.5C 373.178,120.232 372.511,116.565 372.5,112.5C 372.511,108.435 373.178,104.768 374.5,101.5 Z"/></g>
<g><path style="opacity:1" fill="#cbd7d0" d="M 374.5,101.5 C 375.822,104.768 376.489,108.435 376.5,112.5C 376.489,116.565 375.822,120.232 374.5,123.5C 374.5,116.167 374.5,108.833 374.5,101.5 Z"/></g>
<g><path style="opacity:1" fill="#e7ebef" d="M 398.5,101.5 C 405.5,101.5 412.5,101.5 419.5,101.5C 419.5,108.833 419.5,116.167 419.5,123.5C 412.5,123.5 405.5,123.5 398.5,123.5C 398.5,116.167 398.5,108.833 398.5,101.5 Z"/></g>
<g><path style="opacity:1" fill="#cbd7d0" d="M 421.5,101.5 C 422.822,104.768 423.489,108.435 423.5,112.5C 423.167,116.167 422.833,119.833 422.5,123.5C 421.503,116.197 421.169,108.863 421.5,101.5 Z"/></g>
<g><path style="opacity:1" fill="#d8c9aa" d="M 424.5,101.5 C 425.822,104.768 426.489,108.435 426.5,112.5C 426.167,116.167 425.833,119.833 425.5,123.5C 424.503,116.197 424.169,108.863 424.5,101.5 Z"/></g>
<g><path style="opacity:1" fill="#e7ebef" d="M 428.5,101.5 C 435.5,101.5 442.5,101.5 449.5,101.5C 449.5,108.833 449.5,116.167 449.5,123.5C 442.5,123.5 435.5,123.5 428.5,123.5C 428.5,116.167 428.5,108.833 428.5,101.5 Z"/></g>
<g><path style="opacity:1" fill="#cbd7d0" d="M 451.5,101.5 C 452.822,104.768 453.489,108.435 453.5,112.5C 453.167,116.167 452.833,119.833 452.5,123.5C 451.503,116.197 451.169,108.863 451.5,101.5 Z"/></g>
<g><path style="opacity:1" fill="#d8c9aa" d="M 454.5,101.5 C 455.822,104.768 456.489,108.435 456.5,112.5C 456.167,116.167 455.833,119.833 455.5,123.5C 454.503,116.197 454.169,108.863 454.5,101.5 Z"/></g>
<g><path style="opacity:1" fill="#e9ebee" d="M 488.5,101.5 C 495.5,101.5 502.5,101.5 509.5,101.5C 509.5,108.833 509.5,116.167 509.5,123.5C 502.5,123.5 495.5,123.5 488.5,123.5C 488.5,116.167 488.5,108.833 488.5,101.5 Z"/></g>
<g><path style="opacity:1" fill="#d6cdbf" d="M 511.5,101.5 C 512.822,104.768 513.489,108.435 513.5,112.5C 513.167,116.167 512.833,119.833 512.5,123.5C 511.503,116.197 511.169,108.863 511.5,101.5 Z"/></g>
<g><path style="opacity:1" fill="#d1b76e" d="M 514.5,101.5 C 515.822,104.768 516.489,108.435 516.5,112.5C 516.167,116.167 515.833,119.833 515.5,123.5C 514.503,116.197 514.169,108.863 514.5,101.5 Z"/></g>
<g><path style="opacity:1" fill="#ebf1f5" d="M 548.5,101.5 C 555.167,101.5 561.833,101.5 568.5,101.5C 568.5,108.833 568.5,116.167 568.5,123.5C 561.833,123.5 555.167,123.5 548.5,123.5C 548.5,116.167 548.5,108.833 548.5,101.5 Z"/></g>
<g><path style="opacity:1" fill="#d1b76e" d="M 573.5,101.5 C 573.5,108.833 573.5,116.167 573.5,123.5C 572.178,120.232 571.511,116.565 571.5,112.5C 571.511,108.435 572.178,104.768 573.5,101.5 Z"/></g>
<g><path style="opacity:1" fill="#b8d5d4" d="M 573.5,101.5 C 574.822,104.768 575.489,108.435 575.5,112.5C 575.489,116.565 574.822,120.232 573.5,123.5C 573.5,116.167 573.5,108.833 573.5,101.5 Z"/></g>
<g><path style="opacity:1" fill="#ebf1f5" d="M 608.5,101.5 C 615.167,101.5 621.833,101.5 628.5,101.5C 628.5,108.833 628.5,116.167 628.5,123.5C 621.833,123.5 615.167,123.5 608.5,123.5C 608.5,116.167 608.5,108.833 608.5,101.5 Z"/></g>
<g><path style="opacity:1" fill="#ca9e64" d="M 633.5,101.5 C 633.5,108.833 633.5,116.167 633.5,123.5C 632.178,120.232 631.511,116.565 631.5,112.5C 631.511,108.435 632.178,104.768 633.5,101.5 Z"/></g>
<g><path style="opacity:1" fill="#cbd7d0" d="M 633.5,101.5 C 634.822,104.768 635.489,108.435 635.5,112.5C 635.489,116.565 634.822,120.232 633.5,123.5C 633.5,116.167 633.5,108.833 633.5,101.5 Z"/></g>
<g><path style="opacity:1" fill="#e4eaf2" d="M 637.5,101.5 C 644.5,101.5 651.5,101.5 658.5,101.5C 658.5,108.833 658.5,116.167 658.5,123.5C 651.5,123.5 644.5,123.5 637.5,123.5C 637.5,116.167 637.5,108.833 637.5,101.5 Z"/></g>
<g><path style="opacity:1" fill="#d6dadf" d="M 713.5,123.5 C 713.5,119.833 713.5,116.167 713.5,112.5C 707.833,112.664 707.5,112.997 712.5,113.5C 712.5,116.833 712.5,120.167 712.5,123.5C 710.906,120.939 709.906,117.939 709.5,114.5C 708.516,117.428 708.183,120.428 708.5,123.5C 701.5,123.5 694.5,123.5 687.5,123.5C 687.5,120.5 687.5,117.5 687.5,114.5C 680.167,114.5 672.833,114.5 665.5,114.5C 665.5,117.5 665.5,120.5 665.5,123.5C 663.833,123.5 662.167,123.5 660.5,123.5C 660.5,119.5 660.5,115.5 660.5,111.5C 669.5,111.5 678.5,111.5 687.5,111.5C 687.5,108.167 687.5,104.833 687.5,101.5C 694.5,101.5 701.5,101.5 708.5,101.5C 708.5,104.833 708.5,108.167 708.5,111.5C 710.833,111.5 713.167,111.5 715.5,111.5C 716.089,115.971 715.423,119.971 713.5,123.5 Z"/></g>
<g><path style="opacity:1" fill="#e7ebef" d="M 757.5,101.5 C 764.5,101.5 771.5,101.5 778.5,101.5C 778.5,108.833 778.5,116.167 778.5,123.5C 771.5,123.5 764.5,123.5 757.5,123.5C 757.5,116.167 757.5,108.833 757.5,101.5 Z"/></g>
<g><path style="opacity:1" fill="#e8eaed" d="M 783.5,123.5 C 783.5,120.167 783.5,116.833 783.5,113.5C 791.507,113.666 799.507,113.5 807.5,113C 799.173,112.5 790.84,112.334 782.5,112.5C 782.5,116.167 782.5,119.833 782.5,123.5C 780.577,119.971 779.911,115.971 780.5,111.5C 789.5,111.5 798.5,111.5 807.5,111.5C 807.5,108.167 807.5,104.833 807.5,101.5C 814.5,101.5 821.5,101.5 828.5,101.5C 828.5,108.833 828.5,116.167 828.5,123.5C 821.5,123.5 814.5,123.5 807.5,123.5C 807.5,120.5 807.5,117.5 807.5,114.5C 800.167,114.5 792.833,114.5 785.5,114.5C 786.055,118.012 785.388,121.012 783.5,123.5 Z"/></g>
<g><path style="opacity:1" fill="#d6cdbf" d="M 830.5,101.5 C 831.822,104.768 832.489,108.435 832.5,112.5C 832.167,116.167 831.833,119.833 831.5,123.5C 830.503,116.197 830.169,108.863 830.5,101.5 Z"/></g>
<g><path style="opacity:1" fill="#d1b76e" d="M 833.5,101.5 C 834.822,104.768 835.489,108.435 835.5,112.5C 835.167,116.167 834.833,119.833 834.5,123.5C 833.503,116.197 833.169,108.863 833.5,101.5 Z"/></g>
<g><path style="opacity:1" fill="#e9ebee" d="M 837.5,101.5 C 844.5,101.5 851.5,101.5 858.5,101.5C 858.5,108.833 858.5,116.167 858.5,123.5C 851.5,123.5 844.5,123.5 837.5,123.5C 837.5,116.167 837.5,108.833 837.5,101.5 Z"/></g>
<g><path style="opacity:1" fill="#d1b76e" d="M 862.5,101.5 C 862.5,108.833 862.5,116.167 862.5,123.5C 861.178,120.232 860.511,116.565 860.5,112.5C 860.511,108.435 861.178,104.768 862.5,101.5 Z"/></g>
<g><path style="opacity:1" fill="#b8d5d4" d="M 862.5,101.5 C 863.822,104.768 864.489,108.435 864.5,112.5C 864.489,116.565 863.822,120.232 862.5,123.5C 862.5,116.167 862.5,108.833 862.5,101.5 Z"/></g>
<g><path style="opacity:1" fill="#c9dae2" d="M 94.5,101.5 C 94.5,105.167 94.5,108.833 94.5,112.5C 91.1667,112.5 87.8333,112.5 84.5,112.5C 84.5,116.167 84.5,119.833 84.5,123.5C 82.5772,119.971 81.9106,115.971 82.5,111.5C 85.8333,111.5 89.1667,111.5 92.5,111.5C 91.931,107.671 92.5977,104.337 94.5,101.5 Z"/></g>
<g><path style="opacity:1" fill="#d1d6d5" d="M 323.5,101.5 C 323.5,105.167 323.5,108.833 323.5,112.5C 313.833,112.5 304.167,112.5 294.5,112.5C 294.5,116.167 294.5,119.833 294.5,123.5C 292.577,119.971 291.911,115.971 292.5,111.5C 302.167,111.5 311.833,111.5 321.5,111.5C 320.931,107.671 321.598,104.337 323.5,101.5 Z"/></g>
<g><path style="opacity:1" fill="#411543" d="M 94.5,101.5 C 94.8333,101.5 95.1667,101.5 95.5,101.5C 95.5,105.5 95.5,109.5 95.5,113.5C 92.1667,113.5 88.8333,113.5 85.5,113.5C 85.5,116.833 85.5,120.167 85.5,123.5C 85.1667,123.5 84.8333,123.5 84.5,123.5C 84.5,119.833 84.5,116.167 84.5,112.5C 87.8333,112.5 91.1667,112.5 94.5,112.5C 94.5,108.833 94.5,105.167 94.5,101.5 Z"/></g>
<g><path style="opacity:1" fill="#dadbd1" d="M 95.5,101.5 C 97.4302,105.373 98.0969,109.706 97.5,114.5C 94.1667,114.5 90.8333,114.5 87.5,114.5C 88.0545,118.012 87.3878,121.012 85.5,123.5C 85.5,120.167 85.5,116.833 85.5,113.5C 88.8333,113.5 92.1667,113.5 95.5,113.5C 95.5,109.5 95.5,105.5 95.5,101.5 Z"/></g>
<g><path style="opacity:1" fill="#1f5673" d="M 323.5,112.5 C 314.918,113.499 305.585,113.832 295.5,113.5C 295.5,116.833 295.5,120.167 295.5,123.5C 295.167,123.5 294.833,123.5 294.5,123.5C 294.5,119.833 294.5,116.167 294.5,112.5C 304.167,112.5 313.833,112.5 323.5,112.5 Z"/></g>
<g><path style="opacity:1" fill="#dad7cf" d="M 323.5,101.5 C 324.5,101.5 325.5,101.5 326.5,101.5C 326.5,105.833 326.5,110.167 326.5,114.5C 316.5,114.5 306.5,114.5 296.5,114.5C 296.81,117.713 296.477,120.713 295.5,123.5C 295.5,120.167 295.5,116.833 295.5,113.5C 305.585,113.832 314.918,113.499 323.5,112.5C 323.5,108.833 323.5,105.167 323.5,101.5 Z"/></g>
<g><path style="opacity:1" fill="#581866" d="M 713.5,123.5 C 713.167,123.5 712.833,123.5 712.5,123.5C 712.5,120.167 712.5,116.833 712.5,113.5C 707.5,112.997 707.833,112.664 713.5,112.5C 713.5,116.167 713.5,119.833 713.5,123.5 Z"/></g>
<g><path style="opacity:1" fill="#47164b" d="M 783.5,123.5 C 783.167,123.5 782.833,123.5 782.5,123.5C 782.5,119.833 782.5,116.167 782.5,112.5C 790.84,112.334 799.173,112.5 807.5,113C 799.507,113.5 791.507,113.666 783.5,113.5C 783.5,116.833 783.5,120.167 783.5,123.5 Z"/></g>
<g><path style="opacity:1" fill="#e4eaf2" d="M 19.5,127.5 C 26.5,127.5 33.5,127.5 40.5,127.5C 40.5,134.833 40.5,142.167 40.5,149.5C 33.5,149.5 26.5,149.5 19.5,149.5C 19.5,142.167 19.5,134.833 19.5,127.5 Z"/></g>
<g><path style="opacity:1" fill="#ca9e64" d="M 45.5,127.5 C 45.5,134.833 45.5,142.167 45.5,149.5C 44.1778,146.232 43.5112,142.565 43.5,138.5C 43.5112,134.435 44.1778,130.768 45.5,127.5 Z"/></g>
<g><path style="opacity:1" fill="#cbd7d0" d="M 45.5,127.5 C 46.8222,130.768 47.4888,134.435 47.5,138.5C 47.4888,142.565 46.8222,146.232 45.5,149.5C 45.5,142.167 45.5,134.833 45.5,127.5 Z"/></g>
<g><path style="opacity:1" fill="#e7ebef" d="M 99.5,127.5 C 106.5,127.5 113.5,127.5 120.5,127.5C 120.5,134.833 120.5,142.167 120.5,149.5C 113.5,149.5 106.5,149.5 99.5,149.5C 99.5,142.167 99.5,134.833 99.5,127.5 Z"/></g>
<g><path style="opacity:1" fill="#cbd7d0" d="M 122.5,127.5 C 123.822,130.768 124.489,134.435 124.5,138.5C 124.167,142.167 123.833,145.833 123.5,149.5C 122.503,142.197 122.169,134.863 122.5,127.5 Z"/></g>
<g><path style="opacity:1" fill="#d8c9aa" d="M 125.5,127.5 C 126.822,130.768 127.489,134.435 127.5,138.5C 127.167,142.167 126.833,145.833 126.5,149.5C 125.503,142.197 125.169,134.863 125.5,127.5 Z"/></g>
<g><path style="opacity:1" fill="#e7ebef" d="M 129.5,127.5 C 136.5,127.5 143.5,127.5 150.5,127.5C 150.5,134.833 150.5,142.167 150.5,149.5C 143.5,149.5 136.5,149.5 129.5,149.5C 129.5,142.167 129.5,134.833 129.5,127.5 Z"/></g>
<g><path style="opacity:1" fill="#cbd7d0" d="M 152.5,127.5 C 153.822,130.768 154.489,134.435 154.5,138.5C 154.167,142.167 153.833,145.833 153.5,149.5C 152.503,142.197 152.169,134.863 152.5,127.5 Z"/></g>
<g><path style="opacity:1" fill="#d8c9aa" d="M 155.5,127.5 C 156.822,130.768 157.489,134.435 157.5,138.5C 157.167,142.167 156.833,145.833 156.5,149.5C 155.503,142.197 155.169,134.863 155.5,127.5 Z"/></g>
<g><path style="opacity:1" fill="#eaeff5" d="M 159.5,127.5 C 179.833,127.5 200.167,127.5 220.5,127.5C 220.5,134.833 220.5,142.167 220.5,149.5C 200.167,149.5 179.833,149.5 159.5,149.5C 159.5,142.167 159.5,134.833 159.5,127.5 Z"/></g>
<g><path style="opacity:1" fill="#ebf1f5" d="M 239.5,127.5 C 246.167,127.5 252.833,127.5 259.5,127.5C 259.5,134.833 259.5,142.167 259.5,149.5C 252.833,149.5 246.167,149.5 239.5,149.5C 239.5,142.167 239.5,134.833 239.5,127.5 Z"/></g>
<g><path style="opacity:1" fill="#d1b76e" d="M 264.5,127.5 C 264.5,134.833 264.5,142.167 264.5,149.5C 263.178,146.232 262.511,142.565 262.5,138.5C 262.511,134.435 263.178,130.768 264.5,127.5 Z"/></g>
<g><path style="opacity:1" fill="#b8d5d4" d="M 264.5,127.5 C 265.822,130.768 266.489,134.435 266.5,138.5C 266.489,142.565 265.822,146.232 264.5,149.5C 264.5,142.167 264.5,134.833 264.5,127.5 Z"/></g>
<g><path style="opacity:1" fill="#eaf0f6" d="M 344.5,149.5 C 344.5,145.833 344.5,142.167 344.5,138.5C 338.833,138.664 338.5,138.997 343.5,139.5C 343.5,142.833 343.5,146.167 343.5,149.5C 341.906,146.939 340.906,143.939 340.5,140.5C 339.516,143.428 339.183,146.428 339.5,149.5C 316.167,149.5 292.833,149.5 269.5,149.5C 269.5,142.167 269.5,134.833 269.5,127.5C 292.833,127.5 316.167,127.5 339.5,127.5C 339.5,130.833 339.5,134.167 339.5,137.5C 341.833,137.5 344.167,137.5 346.5,137.5C 347.089,141.971 346.423,145.971 344.5,149.5 Z"/></g>
<g><path style="opacity:1" fill="#e9eef3" d="M 348.5,127.5 C 368.833,127.5 389.167,127.5 409.5,127.5C 409.5,134.833 409.5,142.167 409.5,149.5C 389.167,149.5 368.833,149.5 348.5,149.5C 348.5,142.167 348.5,134.833 348.5,127.5 Z"/></g>
<g><path style="opacity:1" fill="#e7ebef" d="M 428.5,127.5 C 435.5,127.5 442.5,127.5 449.5,127.5C 449.5,134.833 449.5,142.167 449.5,149.5C 442.5,149.5 435.5,149.5 428.5,149.5C 428.5,142.167 428.5,134.833 428.5,127.5 Z"/></g>
<g><path style="opacity:1" fill="#cbd7d0" d="M 451.5,127.5 C 452.822,130.768 453.489,134.435 453.5,138.5C 453.167,142.167 452.833,145.833 452.5,149.5C 451.503,142.197 451.169,134.863 451.5,127.5 Z"/></g>
<g><path style="opacity:1" fill="#d8c9aa" d="M 454.5,127.5 C 455.822,130.768 456.489,134.435 456.5,138.5C 456.167,142.167 455.833,145.833 455.5,149.5C 454.503,142.197 454.169,134.863 454.5,127.5 Z"/></g>
<g><path style="opacity:1" fill="#e9ebee" d="M 488.5,127.5 C 495.5,127.5 502.5,127.5 509.5,127.5C 509.5,134.833 509.5,142.167 509.5,149.5C 502.5,149.5 495.5,149.5 488.5,149.5C 488.5,142.167 488.5,134.833 488.5,127.5 Z"/></g>
<g><path style="opacity:1" fill="#d6cdbf" d="M 511.5,127.5 C 512.822,130.768 513.489,134.435 513.5,138.5C 513.167,142.167 512.833,145.833 512.5,149.5C 511.503,142.197 511.169,134.863 511.5,127.5 Z"/></g>
<g><path style="opacity:1" fill="#d1b76e" d="M 514.5,127.5 C 515.822,130.768 516.489,134.435 516.5,138.5C 516.167,142.167 515.833,145.833 515.5,149.5C 514.503,142.197 514.169,134.863 514.5,127.5 Z"/></g>
<g><path style="opacity:1" fill="#e8eff4" d="M 551.5,127.5 C 552.833,127.5 554.167,127.5 555.5,127.5C 555.5,130.833 555.5,134.167 555.5,137.5C 556.5,137.5 557.5,137.5 558.5,137.5C 558.5,134.167 558.5,130.833 558.5,127.5C 578.5,127.5 598.5,127.5 618.5,127.5C 618.5,134.833 618.5,142.167 618.5,149.5C 598.5,149.5 578.5,149.5 558.5,149.5C 558.5,146.5 558.5,143.5 558.5,140.5C 556.167,140.5 553.833,140.5 551.5,140.5C 551.5,136.167 551.5,131.833 551.5,127.5 Z"/></g>
<g><path style="opacity:1" fill="#e4eaf2" d="M 637.5,127.5 C 644.5,127.5 651.5,127.5 658.5,127.5C 658.5,134.833 658.5,142.167 658.5,149.5C 651.5,149.5 644.5,149.5 637.5,149.5C 637.5,142.167 637.5,134.833 637.5,127.5 Z"/></g>
<g><path style="opacity:1" fill="#ca9e64" d="M 663.5,127.5 C 663.5,134.833 663.5,142.167 663.5,149.5C 662.178,146.232 661.511,142.565 661.5,138.5C 661.511,134.435 662.178,130.768 663.5,127.5 Z"/></g>
<g><path style="opacity:1" fill="#cbd7d0" d="M 663.5,127.5 C 664.822,130.768 665.489,134.435 665.5,138.5C 665.489,142.565 664.822,146.232 663.5,149.5C 663.5,142.167 663.5,134.833 663.5,127.5 Z"/></g>
<g><path style="opacity:1" fill="#e4eaf2" d="M 687.5,127.5 C 694.5,127.5 701.5,127.5 708.5,127.5C 708.5,134.833 708.5,142.167 708.5,149.5C 701.5,149.5 694.5,149.5 687.5,149.5C 687.5,142.167 687.5,134.833 687.5,127.5 Z"/></g>
<g><path style="opacity:1" fill="#cbd7d0" d="M 710.5,127.5 C 711.822,130.768 712.489,134.435 712.5,138.5C 712.167,142.167 711.833,145.833 711.5,149.5C 710.503,142.197 710.169,134.863 710.5,127.5 Z"/></g>
<g><path style="opacity:1" fill="#d8c9aa" d="M 713.5,127.5 C 714.822,130.768 715.489,134.435 715.5,138.5C 715.167,142.167 714.833,145.833 714.5,149.5C 713.503,142.197 713.169,134.863 713.5,127.5 Z"/></g>
<g><path style="opacity:1" fill="#e7ebef" d="M 757.5,127.5 C 764.5,127.5 771.5,127.5 778.5,127.5C 778.5,134.833 778.5,142.167 778.5,149.5C 771.5,149.5 764.5,149.5 757.5,149.5C 757.5,142.167 757.5,134.833 757.5,127.5 Z"/></g>
<g><path style="opacity:1" fill="#cbd7d0" d="M 780.5,127.5 C 781.822,130.768 782.489,134.435 782.5,138.5C 782.167,142.167 781.833,145.833 781.5,149.5C 780.503,142.197 780.169,134.863 780.5,127.5 Z"/></g>
<g><path style="opacity:1" fill="#d8c9aa" d="M 783.5,127.5 C 784.822,130.768 785.489,134.435 785.5,138.5C 785.167,142.167 784.833,145.833 784.5,149.5C 783.503,142.197 783.169,134.863 783.5,127.5 Z"/></g>
<g><path style="opacity:1" fill="#e9ebee" d="M 807.5,127.5 C 814.5,127.5 821.5,127.5 828.5,127.5C 828.5,134.833 828.5,142.167 828.5,149.5C 821.5,149.5 814.5,149.5 807.5,149.5C 807.5,142.167 807.5,134.833 807.5,127.5 Z"/></g>
<g><path style="opacity:1" fill="#d6cdbf" d="M 830.5,127.5 C 831.822,130.768 832.489,134.435 832.5,138.5C 832.167,142.167 831.833,145.833 831.5,149.5C 830.503,142.197 830.169,134.863 830.5,127.5 Z"/></g>
<g><path style="opacity:1" fill="#d1b76e" d="M 833.5,127.5 C 834.822,130.768 835.489,134.435 835.5,138.5C 835.167,142.167 834.833,145.833 834.5,149.5C 833.503,142.197 833.169,134.863 833.5,127.5 Z"/></g>
<g><path style="opacity:1" fill="#e9ebee" d="M 837.5,127.5 C 844.5,127.5 851.5,127.5 858.5,127.5C 858.5,134.833 858.5,142.167 858.5,149.5C 851.5,149.5 844.5,149.5 837.5,149.5C 837.5,142.167 837.5,134.833 837.5,127.5 Z"/></g>
<g><path style="opacity:1" fill="#d1b76e" d="M 862.5,127.5 C 862.5,134.833 862.5,142.167 862.5,149.5C 861.178,146.232 860.511,142.565 860.5,138.5C 860.511,134.435 861.178,130.768 862.5,127.5 Z"/></g>
<g><path style="opacity:1" fill="#b8d5d4" d="M 862.5,127.5 C 863.822,130.768 864.489,134.435 864.5,138.5C 864.489,142.565 863.822,146.232 862.5,149.5C 862.5,142.167 862.5,134.833 862.5,127.5 Z"/></g>
<g><path style="opacity:1" fill="#d3d8db" d="M 232.5,127.5 C 234.414,130.684 235.08,134.351 234.5,138.5C 231.167,138.5 227.833,138.5 224.5,138.5C 224.823,142.226 224.489,145.893 223.5,149.5C 222.509,145.555 222.176,141.555 222.5,137.5C 225.833,137.5 229.167,137.5 232.5,137.5C 232.5,134.167 232.5,130.833 232.5,127.5 Z"/></g>
<g><path style="opacity:1" fill="#c9dae2" d="M 421.5,127.5 C 423.414,130.684 424.08,134.351 423.5,138.5C 420.167,138.5 416.833,138.5 413.5,138.5C 413.823,142.226 413.489,145.893 412.5,149.5C 411.509,145.555 411.176,141.555 411.5,137.5C 414.833,137.5 418.167,137.5 421.5,137.5C 421.5,134.167 421.5,130.833 421.5,127.5 Z"/></g>
<g><path style="opacity:1" fill="#c9ceca" d="M 632.5,127.5 C 632.5,131.167 632.5,134.833 632.5,138.5C 629.5,138.5 626.5,138.5 623.5,138.5C 623.5,142.167 623.5,145.833 623.5,149.5C 621.577,145.971 620.911,141.971 621.5,137.5C 624.5,137.5 627.5,137.5 630.5,137.5C 629.931,133.671 630.598,130.337 632.5,127.5 Z"/></g>
<g><path style="opacity:1" fill="#c9d4dd" d="M 64.5,127.5 C 64.1832,131.702 64.5166,135.702 65.5,139.5C 72.1667,139.5 78.8333,139.5 85.5,139.5C 85.1758,135.445 85.5091,131.445 86.5,127.5C 87.4922,131.783 87.8256,136.116 87.5,140.5C 79.1667,140.5 70.8333,140.5 62.5,140.5C 61.9031,135.706 62.5698,131.373 64.5,127.5 Z M 72.5,127.5 C 72.5,129.5 72.5,131.5 72.5,133.5C 74.5,133.5 76.5,133.5 78.5,133.5C 78.5,131.5 78.5,129.5 78.5,127.5C 76.5,127.5 74.5,127.5 72.5,127.5 Z"/></g>
<g><path style="opacity:1" fill="#cfcec7" d="M 64.5,127.5 C 65.5,127.5 66.5,127.5 67.5,127.5C 67.5,130.833 67.5,134.167 67.5,137.5C 72.5,137.5 77.5,137.5 82.5,137.5C 82.1796,134.102 82.513,130.768 83.5,127.5C 84.4892,131.107 84.8226,134.774 84.5,138.5C 77.9779,138.177 71.6446,138.51 65.5,139.5C 64.5166,135.702 64.1832,131.702 64.5,127.5 Z M 72.5,127.5 C 72.5,129.5 72.5,131.5 72.5,133.5C 74.5,133.5 76.5,133.5 78.5,133.5C 78.5,131.5 78.5,129.5 78.5,127.5C 76.5,127.5 74.5,127.5 72.5,127.5 Z"/></g>
<g><path style="opacity:1" fill="#dcd4b2" d="M 235.5,127.5 C 237.43,131.373 238.097,135.706 237.5,140.5C 234.167,140.5 230.833,140.5 227.5,140.5C 227.817,143.572 227.484,146.572 226.5,149.5C 225.513,146.232 225.18,142.898 225.5,139.5C 228.833,139.5 232.167,139.5 235.5,139.5C 235.5,135.5 235.5,131.5 235.5,127.5 Z"/></g>
<g><path style="opacity:1" fill="#85571b" d="M 344.5,149.5 C 344.167,149.5 343.833,149.5 343.5,149.5C 343.5,146.167 343.5,142.833 343.5,139.5C 338.5,138.997 338.833,138.664 344.5,138.5C 344.5,142.167 344.5,145.833 344.5,149.5 Z"/></g>
<g><path style="opacity:1" fill="#dadbd1" d="M 424.5,127.5 C 426.43,131.373 427.097,135.706 426.5,140.5C 423.167,140.5 419.833,140.5 416.5,140.5C 416.817,143.572 416.484,146.572 415.5,149.5C 414.513,146.232 414.18,142.898 414.5,139.5C 417.833,139.5 421.167,139.5 424.5,139.5C 424.5,135.5 424.5,131.5 424.5,127.5 Z"/></g>
<g><path style="opacity:1" fill="#1f6587" d="M 632.5,138.5 C 630.639,139.507 627.972,139.84 624.5,139.5C 624.5,142.833 624.5,146.167 624.5,149.5C 624.167,149.5 623.833,149.5 623.5,149.5C 623.5,145.833 623.5,142.167 623.5,138.5C 626.5,138.5 629.5,138.5 632.5,138.5 Z"/></g>
<g><path style="opacity:1" fill="#d6d0c2" d="M 632.5,127.5 C 633.5,127.5 634.5,127.5 635.5,127.5C 635.5,131.833 635.5,136.167 635.5,140.5C 632.167,140.5 628.833,140.5 625.5,140.5C 625.81,143.713 625.477,146.713 624.5,149.5C 624.5,146.167 624.5,142.833 624.5,139.5C 627.972,139.84 630.639,139.507 632.5,138.5C 632.5,134.833 632.5,131.167 632.5,127.5 Z"/></g>
<g><path style="opacity:1" fill="#c2d4e4" d="M 24.5,153.5 C 24.5,157.5 24.5,161.5 24.5,165.5C 31.5,165.5 38.5,165.5 45.5,165.5C 45.5,161.5 45.5,157.5 45.5,153.5C 47.4302,157.373 48.0969,161.706 47.5,166.5C 39.1667,166.5 30.8333,166.5 22.5,166.5C 21.9031,161.706 22.5698,157.373 24.5,153.5 Z M 32.5,153.5 C 32.5,155.5 32.5,157.5 32.5,159.5C 34.5,159.5 36.5,159.5 38.5,159.5C 38.5,157.5 38.5,155.5 38.5,153.5C 36.5,153.5 34.5,153.5 32.5,153.5 Z"/></g>
<g><path style="opacity:1" fill="#a39a93" d="M 24.5,153.5 C 25.5,153.5 26.5,153.5 27.5,153.5C 27.5,156.833 27.5,160.167 27.5,163.5C 32.5,163.5 37.5,163.5 42.5,163.5C 42.5,160.167 42.5,156.833 42.5,153.5C 43.5,153.5 44.5,153.5 45.5,153.5C 45.5,157.5 45.5,161.5 45.5,165.5C 38.5,165.5 31.5,165.5 24.5,165.5C 24.5,161.5 24.5,157.5 24.5,153.5 Z M 32.5,153.5 C 32.5,155.5 32.5,157.5 32.5,159.5C 34.5,159.5 36.5,159.5 38.5,159.5C 38.5,157.5 38.5,155.5 38.5,153.5C 36.5,153.5 34.5,153.5 32.5,153.5 Z"/></g>
<g><path style="opacity:1" fill="#d5dddd" d="M 102.5,153.5 C 104.423,157.029 105.089,161.029 104.5,165.5C 111.5,165.5 118.5,165.5 125.5,165.5C 125.176,161.445 125.509,157.445 126.5,153.5C 127.492,157.783 127.826,162.116 127.5,166.5C 119.167,166.5 110.833,166.5 102.5,166.5C 102.5,162.167 102.5,157.833 102.5,153.5 Z M 111.5,153.5 C 111.5,155.5 111.5,157.5 111.5,159.5C 113.833,159.5 116.167,159.5 118.5,159.5C 118.5,157.5 118.5,155.5 118.5,153.5C 116.167,153.5 113.833,153.5 111.5,153.5 Z"/></g>
<g><path style="opacity:1" fill="#d5dddd" d="M 105.5,153.5 C 107.402,156.337 108.069,159.671 107.5,163.5C 112.5,163.5 117.5,163.5 122.5,163.5C 122.18,160.102 122.513,156.768 123.5,153.5C 124.489,157.107 124.823,160.774 124.5,164.5C 118.167,164.5 111.833,164.5 105.5,164.5C 105.5,160.833 105.5,157.167 105.5,153.5 Z M 111.5,153.5 C 111.5,155.5 111.5,157.5 111.5,159.5C 113.833,159.5 116.167,159.5 118.5,159.5C 118.5,157.5 118.5,155.5 118.5,153.5C 116.167,153.5 113.833,153.5 111.5,153.5 Z"/></g>
<g><path style="opacity:1" fill="#d5dddd" d="M 132.5,153.5 C 134.423,157.029 135.089,161.029 134.5,165.5C 141.5,165.5 148.5,165.5 155.5,165.5C 155.176,161.445 155.509,157.445 156.5,153.5C 157.492,157.783 157.826,162.116 157.5,166.5C 149.167,166.5 140.833,166.5 132.5,166.5C 132.5,162.167 132.5,157.833 132.5,153.5 Z M 141.5,153.5 C 141.5,155.5 141.5,157.5 141.5,159.5C 143.833,159.5 146.167,159.5 148.5,159.5C 148.5,157.5 148.5,155.5 148.5,153.5C 146.167,153.5 143.833,153.5 141.5,153.5 Z"/></g>
<g><path style="opacity:1" fill="#d5dddd" d="M 135.5,153.5 C 137.402,156.337 138.069,159.671 137.5,163.5C 142.5,163.5 147.5,163.5 152.5,163.5C 152.18,160.102 152.513,156.768 153.5,153.5C 154.489,157.107 154.823,160.774 154.5,164.5C 148.167,164.5 141.833,164.5 135.5,164.5C 135.5,160.833 135.5,157.167 135.5,153.5 Z M 141.5,153.5 C 141.5,155.5 141.5,157.5 141.5,159.5C 143.833,159.5 146.167,159.5 148.5,159.5C 148.5,157.5 148.5,155.5 148.5,153.5C 146.167,153.5 143.833,153.5 141.5,153.5 Z"/></g>
<g><path style="opacity:1" fill="#e4e3de" d="M 162.5,153.5 C 164.423,157.029 165.089,161.029 164.5,165.5C 184.833,165.5 205.167,165.5 225.5,165.5C 225.176,161.445 225.509,157.445 226.5,153.5C 227.492,157.783 227.826,162.116 227.5,166.5C 205.833,166.5 184.167,166.5 162.5,166.5C 162.5,162.167 162.5,157.833 162.5,153.5 Z M 171.5,153.5 C 171.5,155.5 171.5,157.5 171.5,159.5C 187.167,159.5 202.833,159.5 218.5,159.5C 218.5,157.5 218.5,155.5 218.5,153.5C 202.833,153.5 187.167,153.5 171.5,153.5 Z"/></g>
<g><path style="opacity:1" fill="#e4e4e0" d="M 165.5,153.5 C 167.402,156.337 168.069,159.671 167.5,163.5C 185.833,163.5 204.167,163.5 222.5,163.5C 222.18,160.102 222.513,156.768 223.5,153.5C 224.489,157.107 224.823,160.774 224.5,164.5C 204.833,164.5 185.167,164.5 165.5,164.5C 165.5,160.833 165.5,157.167 165.5,153.5 Z M 171.5,153.5 C 171.5,155.5 171.5,157.5 171.5,159.5C 187.167,159.5 202.833,159.5 218.5,159.5C 218.5,157.5 218.5,155.5 218.5,153.5C 202.833,153.5 187.167,153.5 171.5,153.5 Z"/></g>
<g><path style="opacity:1" fill="#e4e3ce" d="M 244.5,153.5 C 244.5,157.5 244.5,161.5 244.5,165.5C 251.5,165.5 258.5,165.5 265.5,165.5C 265.5,161.5 265.5,157.5 265.5,153.5C 266.485,157.634 266.818,161.968 266.5,166.5C 258.5,166.5 250.5,166.5 242.5,166.5C 241.903,161.706 242.57,157.373 244.5,153.5 Z M 251.5,153.5 C 251.5,155.5 251.5,157.5 251.5,159.5C 253.5,159.5 255.5,159.5 257.5,159.5C 257.5,157.5 257.5,155.5 257.5,153.5C 255.5,153.5 253.5,153.5 251.5,153.5 Z"/></g>
<g><path style="opacity:1" fill="#97a5a6" d="M 244.5,153.5 C 246.402,156.337 247.069,159.671 246.5,163.5C 251.833,163.5 257.167,163.5 262.5,163.5C 262.5,160.167 262.5,156.833 262.5,153.5C 263.5,153.5 264.5,153.5 265.5,153.5C 265.5,157.5 265.5,161.5 265.5,165.5C 258.5,165.5 251.5,165.5 244.5,165.5C 244.5,161.5 244.5,157.5 244.5,153.5 Z M 251.5,153.5 C 251.5,155.5 251.5,157.5 251.5,159.5C 253.5,159.5 255.5,159.5 257.5,159.5C 257.5,157.5 257.5,155.5 257.5,153.5C 255.5,153.5 253.5,153.5 251.5,153.5 Z"/></g>
<g><path style="opacity:1" fill="#a29f97" d="M 274.5,153.5 C 274.5,157.167 274.5,160.833 274.5,164.5C 297.5,164.5 320.5,164.5 343.5,164.5C 343.5,160.833 343.5,157.167 343.5,153.5C 344.5,153.5 345.5,153.5 346.5,153.5C 346.5,157.833 346.5,162.167 346.5,166.5C 321.833,166.5 297.167,166.5 272.5,166.5C 271.903,161.706 272.57,157.373 274.5,153.5 Z M 281.5,153.5 C 281.5,155.5 281.5,157.5 281.5,159.5C 300.167,159.5 318.833,159.5 337.5,159.5C 337.5,157.5 337.5,155.5 337.5,153.5C 318.833,153.5 300.167,153.5 281.5,153.5 Z"/></g>
<g><path style="opacity:1" fill="#cedeed" d="M 274.5,153.5 C 276.402,156.337 277.069,159.671 276.5,163.5C 298.167,163.5 319.833,163.5 341.5,163.5C 340.931,159.671 341.598,156.337 343.5,153.5C 343.5,157.167 343.5,160.833 343.5,164.5C 320.5,164.5 297.5,164.5 274.5,164.5C 274.5,160.833 274.5,157.167 274.5,153.5 Z M 281.5,153.5 C 281.5,155.5 281.5,157.5 281.5,159.5C 300.167,159.5 318.833,159.5 337.5,159.5C 337.5,157.5 337.5,155.5 337.5,153.5C 318.833,153.5 300.167,153.5 281.5,153.5 Z"/></g>
<g><path style="opacity:1" fill="#d7dde5" d="M 353.5,153.5 C 353.183,157.702 353.517,161.702 354.5,165.5C 374.5,165.5 394.5,165.5 414.5,165.5C 414.176,161.445 414.509,157.445 415.5,153.5C 416.492,157.783 416.826,162.116 416.5,166.5C 394.833,166.5 373.167,166.5 351.5,166.5C 350.903,161.706 351.57,157.373 353.5,153.5 Z M 361.5,153.5 C 361.5,155.5 361.5,157.5 361.5,159.5C 376.833,159.5 392.167,159.5 407.5,159.5C 407.5,157.5 407.5,155.5 407.5,153.5C 392.167,153.5 376.833,153.5 361.5,153.5 Z"/></g>
<g><path style="opacity:1" fill="#dedddb" d="M 353.5,153.5 C 354.5,153.5 355.5,153.5 356.5,153.5C 356.5,156.833 356.5,160.167 356.5,163.5C 374.833,163.5 393.167,163.5 411.5,163.5C 411.18,160.102 411.513,156.768 412.5,153.5C 413.489,157.107 413.823,160.774 413.5,164.5C 393.66,164.17 373.993,164.503 354.5,165.5C 353.517,161.702 353.183,157.702 353.5,153.5 Z M 361.5,153.5 C 361.5,155.5 361.5,157.5 361.5,159.5C 376.833,159.5 392.167,159.5 407.5,159.5C 407.5,157.5 407.5,155.5 407.5,153.5C 392.167,153.5 376.833,153.5 361.5,153.5 Z"/></g>
<g><path style="opacity:1" fill="#d5dddd" d="M 431.5,153.5 C 433.423,157.029 434.089,161.029 433.5,165.5C 440.5,165.5 447.5,165.5 454.5,165.5C 454.176,161.445 454.509,157.445 455.5,153.5C 456.492,157.783 456.826,162.116 456.5,166.5C 448.167,166.5 439.833,166.5 431.5,166.5C 431.5,162.167 431.5,157.833 431.5,153.5 Z M 440.5,153.5 C 440.5,155.5 440.5,157.5 440.5,159.5C 442.833,159.5 445.167,159.5 447.5,159.5C 447.5,157.5 447.5,155.5 447.5,153.5C 445.167,153.5 442.833,153.5 440.5,153.5 Z"/></g>
<g><path style="opacity:1" fill="#d5dddd" d="M 434.5,153.5 C 436.402,156.337 437.069,159.671 436.5,163.5C 441.5,163.5 446.5,163.5 451.5,163.5C 451.18,160.102 451.513,156.768 452.5,153.5C 453.489,157.107 453.823,160.774 453.5,164.5C 447.167,164.5 440.833,164.5 434.5,164.5C 434.5,160.833 434.5,157.167 434.5,153.5 Z M 440.5,153.5 C 440.5,155.5 440.5,157.5 440.5,159.5C 442.833,159.5 445.167,159.5 447.5,159.5C 447.5,157.5 447.5,155.5 447.5,153.5C 445.167,153.5 442.833,153.5 440.5,153.5 Z"/></g>
<g><path style="opacity:1" fill="#dbd9cd" d="M 491.5,153.5 C 493.423,157.029 494.089,161.029 493.5,165.5C 500.5,165.5 507.5,165.5 514.5,165.5C 514.176,161.445 514.509,157.445 515.5,153.5C 516.492,157.783 516.826,162.116 516.5,166.5C 508.167,166.5 499.833,166.5 491.5,166.5C 491.5,162.167 491.5,157.833 491.5,153.5 Z M 500.5,153.5 C 500.5,155.5 500.5,157.5 500.5,159.5C 502.833,159.5 505.167,159.5 507.5,159.5C 507.5,157.5 507.5,155.5 507.5,153.5C 505.167,153.5 502.833,153.5 500.5,153.5 Z"/></g>
<g><path style="opacity:1" fill="#dbd9cc" d="M 494.5,153.5 C 496.402,156.337 497.069,159.671 496.5,163.5C 501.5,163.5 506.5,163.5 511.5,163.5C 511.18,160.102 511.513,156.768 512.5,153.5C 513.489,157.107 513.823,160.774 513.5,164.5C 507.167,164.5 500.833,164.5 494.5,164.5C 494.5,160.833 494.5,157.167 494.5,153.5 Z M 500.5,153.5 C 500.5,155.5 500.5,157.5 500.5,159.5C 502.833,159.5 505.167,159.5 507.5,159.5C 507.5,157.5 507.5,155.5 507.5,153.5C 505.167,153.5 502.833,153.5 500.5,153.5 Z"/></g>
<g><path style="opacity:1" fill="#e8e8de" d="M 563.5,153.5 C 563.5,157.5 563.5,161.5 563.5,165.5C 583.833,165.5 604.167,165.5 624.5,165.5C 624.5,161.5 624.5,157.5 624.5,153.5C 625.485,157.634 625.818,161.968 625.5,166.5C 604.167,166.5 582.833,166.5 561.5,166.5C 560.903,161.706 561.57,157.373 563.5,153.5 Z M 570.5,153.5 C 570.5,155.5 570.5,157.5 570.5,159.5C 585.833,159.5 601.167,159.5 616.5,159.5C 616.5,157.5 616.5,155.5 616.5,153.5C 601.167,153.5 585.833,153.5 570.5,153.5 Z"/></g>
<g><path style="opacity:1" fill="#929c9e" d="M 563.5,153.5 C 565.402,156.337 566.069,159.671 565.5,163.5C 584.167,163.5 602.833,163.5 621.5,163.5C 621.5,160.167 621.5,156.833 621.5,153.5C 622.5,153.5 623.5,153.5 624.5,153.5C 624.5,157.5 624.5,161.5 624.5,165.5C 604.167,165.5 583.833,165.5 563.5,165.5C 563.5,161.5 563.5,157.5 563.5,153.5 Z M 570.5,153.5 C 570.5,155.5 570.5,157.5 570.5,159.5C 585.833,159.5 601.167,159.5 616.5,159.5C 616.5,157.5 616.5,155.5 616.5,153.5C 601.167,153.5 585.833,153.5 570.5,153.5 Z"/></g>
<g><path style="opacity:1" fill="#c2d4e4" d="M 642.5,153.5 C 642.5,157.5 642.5,161.5 642.5,165.5C 649.5,165.5 656.5,165.5 663.5,165.5C 663.5,161.5 663.5,157.5 663.5,153.5C 665.43,157.373 666.097,161.706 665.5,166.5C 657.167,166.5 648.833,166.5 640.5,166.5C 639.903,161.706 640.57,157.373 642.5,153.5 Z M 650.5,153.5 C 650.5,155.5 650.5,157.5 650.5,159.5C 652.5,159.5 654.5,159.5 656.5,159.5C 656.5,157.5 656.5,155.5 656.5,153.5C 654.5,153.5 652.5,153.5 650.5,153.5 Z"/></g>
<g><path style="opacity:1" fill="#a39a93" d="M 642.5,153.5 C 643.5,153.5 644.5,153.5 645.5,153.5C 645.5,156.833 645.5,160.167 645.5,163.5C 650.5,163.5 655.5,163.5 660.5,163.5C 660.5,160.167 660.5,156.833 660.5,153.5C 661.5,153.5 662.5,153.5 663.5,153.5C 663.5,157.5 663.5,161.5 663.5,165.5C 656.5,165.5 649.5,165.5 642.5,165.5C 642.5,161.5 642.5,157.5 642.5,153.5 Z M 650.5,153.5 C 650.5,155.5 650.5,157.5 650.5,159.5C 652.5,159.5 654.5,159.5 656.5,159.5C 656.5,157.5 656.5,155.5 656.5,153.5C 654.5,153.5 652.5,153.5 650.5,153.5 Z"/></g>
<g><path style="opacity:1" fill="#c9d4dd" d="M 692.5,153.5 C 692.183,157.702 692.517,161.702 693.5,165.5C 700.167,165.5 706.833,165.5 713.5,165.5C 713.176,161.445 713.509,157.445 714.5,153.5C 715.492,157.783 715.826,162.116 715.5,166.5C 707.167,166.5 698.833,166.5 690.5,166.5C 689.903,161.706 690.57,157.373 692.5,153.5 Z M 700.5,153.5 C 700.5,155.5 700.5,157.5 700.5,159.5C 702.5,159.5 704.5,159.5 706.5,159.5C 706.5,157.5 706.5,155.5 706.5,153.5C 704.5,153.5 702.5,153.5 700.5,153.5 Z"/></g>
<g><path style="opacity:1" fill="#cfcec7" d="M 692.5,153.5 C 693.5,153.5 694.5,153.5 695.5,153.5C 695.5,156.833 695.5,160.167 695.5,163.5C 700.5,163.5 705.5,163.5 710.5,163.5C 710.18,160.102 710.513,156.768 711.5,153.5C 712.489,157.107 712.823,160.774 712.5,164.5C 705.978,164.177 699.645,164.51 693.5,165.5C 692.517,161.702 692.183,157.702 692.5,153.5 Z M 700.5,153.5 C 700.5,155.5 700.5,157.5 700.5,159.5C 702.5,159.5 704.5,159.5 706.5,159.5C 706.5,157.5 706.5,155.5 706.5,153.5C 704.5,153.5 702.5,153.5 700.5,153.5 Z"/></g>
<g><path style="opacity:1" fill="#d5dddd" d="M 760.5,153.5 C 762.423,157.029 763.089,161.029 762.5,165.5C 769.5,165.5 776.5,165.5 783.5,165.5C 783.176,161.445 783.509,157.445 784.5,153.5C 785.492,157.783 785.826,162.116 785.5,166.5C 777.167,166.5 768.833,166.5 760.5,166.5C 760.5,162.167 760.5,157.833 760.5,153.5 Z M 769.5,153.5 C 769.5,155.5 769.5,157.5 769.5,159.5C 771.833,159.5 774.167,159.5 776.5,159.5C 776.5,157.5 776.5,155.5 776.5,153.5C 774.167,153.5 771.833,153.5 769.5,153.5 Z"/></g>
<g><path style="opacity:1" fill="#d5dddd" d="M 763.5,153.5 C 765.402,156.337 766.069,159.671 765.5,163.5C 770.5,163.5 775.5,163.5 780.5,163.5C 780.18,160.102 780.513,156.768 781.5,153.5C 782.489,157.107 782.823,160.774 782.5,164.5C 776.167,164.5 769.833,164.5 763.5,164.5C 763.5,160.833 763.5,157.167 763.5,153.5 Z M 769.5,153.5 C 769.5,155.5 769.5,157.5 769.5,159.5C 771.833,159.5 774.167,159.5 776.5,159.5C 776.5,157.5 776.5,155.5 776.5,153.5C 774.167,153.5 771.833,153.5 769.5,153.5 Z"/></g>
<g><path style="opacity:1" fill="#dbd9cd" d="M 810.5,153.5 C 812.423,157.029 813.089,161.029 812.5,165.5C 819.5,165.5 826.5,165.5 833.5,165.5C 833.176,161.445 833.509,157.445 834.5,153.5C 835.492,157.783 835.826,162.116 835.5,166.5C 827.167,166.5 818.833,166.5 810.5,166.5C 810.5,162.167 810.5,157.833 810.5,153.5 Z M 819.5,153.5 C 819.5,155.5 819.5,157.5 819.5,159.5C 821.833,159.5 824.167,159.5 826.5,159.5C 826.5,157.5 826.5,155.5 826.5,153.5C 824.167,153.5 821.833,153.5 819.5,153.5 Z"/></g>
<g><path style="opacity:1" fill="#dbd9cc" d="M 813.5,153.5 C 815.402,156.337 816.069,159.671 815.5,163.5C 820.5,163.5 825.5,163.5 830.5,163.5C 830.18,160.102 830.513,156.768 831.5,153.5C 832.489,157.107 832.823,160.774 832.5,164.5C 826.167,164.5 819.833,164.5 813.5,164.5C 813.5,160.833 813.5,157.167 813.5,153.5 Z M 819.5,153.5 C 819.5,155.5 819.5,157.5 819.5,159.5C 821.833,159.5 824.167,159.5 826.5,159.5C 826.5,157.5 826.5,155.5 826.5,153.5C 824.167,153.5 821.833,153.5 819.5,153.5 Z"/></g>
<g><path style="opacity:1" fill="#cadae2" d="M 862.5,164.5 C 862.5,160.833 862.5,157.167 862.5,153.5C 864.43,157.373 865.097,161.706 864.5,166.5C 856.5,166.5 848.5,166.5 840.5,166.5C 840.174,162.116 840.508,157.783 841.5,153.5C 842.491,157.445 842.824,161.445 842.5,165.5C 849.354,165.824 856.021,165.491 862.5,164.5 Z M 849.5,153.5 C 849.5,155.5 849.5,157.5 849.5,159.5C 851.5,159.5 853.5,159.5 855.5,159.5C 855.5,157.5 855.5,155.5 855.5,153.5C 853.5,153.5 851.5,153.5 849.5,153.5 Z"/></g>
<g><path style="opacity:1" fill="#ded7b9" d="M 862.5,153.5 C 862.5,157.167 862.5,160.833 862.5,164.5C 856.167,164.5 849.833,164.5 843.5,164.5C 843.177,160.774 843.511,157.107 844.5,153.5C 845.487,156.768 845.82,160.102 845.5,163.5C 850.5,163.5 855.5,163.5 860.5,163.5C 859.931,159.671 860.598,156.337 862.5,153.5 Z M 849.5,153.5 C 849.5,155.5 849.5,157.5 849.5,159.5C 851.5,159.5 853.5,159.5 855.5,159.5C 855.5,157.5 855.5,155.5 855.5,153.5C 853.5,153.5 851.5,153.5 849.5,153.5 Z"/></g>
</svg>
